<svg width="20" height="20" viewBox="0 0 20 20" fill="none" xmlns="http://www.w3.org/2000/svg">
<path fill-rule="evenodd" clip-rule="evenodd" d="M2.9165 7.08317V17.0832H12.9165V7.08317H2.9165ZM2.49984 5.83317C2.0396 5.83317 1.6665 6.20627 1.6665 6.6665V17.4998C1.6665 17.9601 2.0396 18.3332 2.49984 18.3332H13.3332C13.7934 18.3332 14.1665 17.9601 14.1665 17.4998V6.6665C14.1665 6.20627 13.7934 5.83317 13.3332 5.83317H2.49984Z" fill="#404040"/>
<path fill-rule="evenodd" clip-rule="evenodd" d="M7.08317 5.83317V2.9165H17.0832V12.9165H14.1665V14.1665H17.4998C17.9601 14.1665 18.3332 13.7934 18.3332 13.3332V2.49984C18.3332 2.0396 17.9601 1.6665 17.4998 1.6665H6.6665C6.20627 1.6665 5.83317 2.0396 5.83317 2.49984V5.83317H7.08317Z" fill="#404040"/>
</svg>
