<svg width="24" height="24" viewBox="0 0 24 24" fill="none" xmlns="http://www.w3.org/2000/svg"><path d="M11.7123 2C11.3152 2 10.9934 2.31382 10.9934 2.70094L10.9934 15.6076L7.72843 12.498C7.44831 12.2236 6.99311 12.2226 6.71173 12.4957C6.43034 12.7689 6.42931 13.2127 6.70943 13.487L11.0922 17.7934C11.2458 17.9438 11.452 18.012 11.6533 17.998C11.8546 18.0129 12.061 17.9455 12.2153 17.7958L16.4516 13.6693C16.733 13.3961 16.734 12.9523 16.4539 12.678C16.1738 12.4036 15.7186 12.4026 15.4372 12.6757L12.4312 15.6081L12.4312 2.70094C12.4312 2.31382 12.1093 2 11.7123 2Z" fill="var(--icon-secondary)"></path><path d="M2 21.75C2 21.3358 2.33579 21 2.75 21H21.25C21.6642 21 22 21.3358 22 21.75C22 22.1642 21.6642 22.5 21.25 22.5H2.75C2.33579 22.5 2 22.1642 2 21.75Z" fill="var(--icon-secondary)"></path></svg>