<svg width="16" height="16" viewBox="0 0 16 16" fill="none" xmlns="http://www.w3.org/2000/svg">
<g clip-path="url(#clip0_41937_23273)">
<path fill-rule="evenodd" clip-rule="evenodd" d="M8.00002 14.3333C11.4978 14.3333 14.3334 11.4978 14.3334 8C14.3334 4.50219 11.4978 1.66666 8.00002 1.66666C4.50222 1.66666 1.66669 4.50219 1.66669 8C1.66669 11.4978 4.50222 14.3333 8.00002 14.3333ZM8.00002 15.3333C12.0501 15.3333 15.3334 12.0501 15.3334 8C15.3334 3.94991 12.0501 0.666664 8.00002 0.666664C3.94993 0.666664 0.666687 3.94991 0.666687 8C0.666687 12.0501 3.94993 15.3333 8.00002 15.3333Z" fill="#DA1E21"/>
<path d="M10.8366 5.85355C11.0319 5.65828 11.0319 5.3417 10.8366 5.14644C10.6414 4.95118 10.3248 4.95118 10.1295 5.14645L8.00823 7.26778L5.88694 5.14652C5.69167 4.95126 5.37509 4.95126 5.17983 5.14653C4.98457 5.34179 4.98457 5.65837 5.17984 5.85363L7.30113 7.9749L5.17983 10.0962C4.98457 10.2915 4.98457 10.6081 5.17984 10.8033C5.3751 10.9986 5.69168 10.9986 5.88694 10.8033L8.00824 8.682L10.1296 10.8033C10.3249 10.9986 10.6415 10.9986 10.8367 10.8033C11.032 10.6081 11.032 10.2915 10.8367 10.0962L8.71535 7.97489L10.8366 5.85355Z" fill="#DA1E21"/>
</g>
<defs>
<clipPath id="clip0_41937_23273">
<rect width="16" height="16" fill="white"/>
</clipPath>
</defs>
</svg>
