<svg width="16" height="16" viewBox="0 0 16 16" fill="none" xmlns="http://www.w3.org/2000/svg">
<path d="M6.16665 1.33331C6.44279 1.33331 6.66665 1.55717 6.66665 1.83331C6.66665 2.10946 6.44279 2.33331 6.16665 2.33331H2.33331V13.6666H13.6666V9.83331C13.6666 9.55717 13.8905 9.33331 14.1666 9.33331C14.4428 9.33331 14.6666 9.55717 14.6666 9.83331V14C14.6666 14.3682 14.3682 14.6666 14 14.6666H1.99998C1.63179 14.6666 1.33331 14.3682 1.33331 14V1.99998C1.33331 1.63179 1.63179 1.33331 1.99998 1.33331H6.16665Z" fill="#0067C5"/>
<path d="M10.1666 1.33331C9.89046 1.33331 9.6666 1.55717 9.6666 1.83331C9.6666 2.10946 9.89046 2.33331 10.1666 2.33331H12.9191L8.65619 6.59617C8.46093 6.79144 8.46093 7.10802 8.65619 7.30328C8.85145 7.49854 9.16804 7.49854 9.3633 7.30328L13.6666 2.99998V5.49998C13.6666 5.77612 13.8905 5.99998 14.1666 5.99998C14.4427 5.99998 14.6666 5.77612 14.6666 5.49998V1.83331C14.6666 1.55717 14.4427 1.33331 14.1666 1.33331H10.1666Z" fill="#0067C5"/>
</svg>
