<svg width="20" height="20" viewBox="0 0 20 20" fill="none" xmlns="http://www.w3.org/2000/svg">
<path d="M1.4 10.001C0.626803 10.001 -0.0100585 10.6308 0.0978401 11.3964C0.306771 12.879 0.846907 14.3019 1.68531 15.5567C2.78412 17.2012 4.34591 18.4829 6.17317 19.2398C8.00043 19.9966 10.0111 20.1947 11.9509 19.8088C13.8907 19.423 15.6725 18.4706 17.0711 17.072C18.4696 15.6735 19.422 13.8917 19.8079 11.9519C20.1937 10.0121 19.9957 8.0014 19.2388 6.17414C18.4819 4.34688 17.2002 2.78509 15.5557 1.68628C14.301 0.847883 12.878 0.307746 11.3955 0.0988152C10.6298 -0.00908361 10 0.627778 10 1.40098C10 2.17418 10.6326 2.78726 11.3912 2.93666C12.319 3.11938 13.2063 3.48399 14.0001 4.0144C15.1841 4.80554 16.107 5.93003 16.6519 7.24566C17.1969 8.56128 17.3395 10.009 17.0617 11.4056C16.7838 12.8023 16.0981 14.0852 15.0912 15.0921C14.0842 16.0991 12.8013 16.7848 11.4047 17.0626C10.008 17.3404 8.56031 17.1979 7.24468 16.6529C5.92905 16.108 4.80457 15.1851 4.01342 14.0011C3.48301 13.2073 3.1184 12.32 2.93569 11.3922C2.78628 10.6336 2.1732 10.001 1.4 10.001Z" fill="#A7A7A7"/>
</svg>
