<svg width="88" height="88" viewBox="0 0 88 88" fill="none" xmlns="http://www.w3.org/2000/svg">
<path d="M3.52001 44C1.57596 44 -0.0146371 45.5786 0.140712 47.5164C0.739009 54.9795 3.23423 62.1876 7.41534 68.4451C12.2501 75.6808 19.122 81.3204 27.1619 84.6507C35.2019 87.981 44.0488 88.8523 52.584 87.1545C61.1191 85.4568 68.9592 81.2662 75.1127 75.1127C81.2662 68.9592 85.4568 61.1191 87.1546 52.584C88.8523 44.0488 87.981 35.2019 84.6507 27.1619C81.3204 19.122 75.6809 12.2501 68.4451 7.41533C62.1876 3.23423 54.9795 0.739003 47.5164 0.140705C45.5786 -0.0146445 44 1.57595 44 3.52C44 5.46404 45.5795 7.02261 47.5148 7.20747C53.5837 7.7872 59.4346 9.86163 64.5339 13.2689C70.6119 17.3301 75.3492 23.1025 78.1466 29.856C80.944 36.6096 81.6759 44.041 80.2498 51.2105C78.8237 58.3801 75.3036 64.9657 70.1347 70.1347C64.9657 75.3036 58.3801 78.8237 51.2105 80.2498C44.041 81.6759 36.6096 80.944 29.856 78.1466C23.1025 75.3492 17.3301 70.6119 13.2689 64.5339C9.86164 59.4346 7.7872 53.5836 7.20748 47.5148C7.02262 45.5795 5.46405 44 3.52001 44Z" fill="#0067C5"/>
</svg>
