<svg width="24" height="24" viewBox="0 0 24 24" fill="none" xmlns="http://www.w3.org/2000/svg">
<g clip-path="url(#clip0_146_4046)">
<path d="M11.7373 21.9999C12.0062 21.9999 12.2589 21.8745 12.4207 21.6601L17.907 14.4003C19.0699 12.8613 19.6164 10.9442 19.4384 9.02424C19.2613 7.10426 18.3731 5.31924 16.948 4.02037C15.5238 2.72059 13.6642 1.99988 11.7363 1.99988C9.8077 1.99988 7.94898 2.72059 6.52393 4.02037C5.09878 5.31919 4.21056 7.10424 4.0335 9.02424C3.85644 10.9442 4.40199 12.8613 5.56491 14.4003H5.56755L11.0539 21.6601C11.2156 21.8745 11.4683 21.9999 11.7373 21.9999ZM11.7372 5.64733C12.793 5.64733 13.8056 6.0675 14.5531 6.81406C15.2996 7.56062 15.7188 8.57325 15.7188 9.62889C15.7188 10.6855 15.2996 11.6982 14.5531 12.4447C13.8055 13.1913 12.7929 13.6105 11.7372 13.6105C10.6816 13.6105 9.6689 13.1913 8.92144 12.4447C8.17487 11.6981 7.75567 10.6855 7.75567 9.62889C7.75662 8.57318 8.17681 7.5615 8.92335 6.81504C9.66989 6.06857 10.6816 5.64924 11.7372 5.64733ZM11.7373 23.9999C10.8459 23.9999 9.99361 23.5755 9.45731 22.8647L3.96923 15.606C2.50301 13.6656 1.81856 11.2629 2.04196 8.84057C2.26538 6.41767 3.37868 4.18085 5.17674 2.54216C6.97396 0.902938 9.30373 -0.00012207 11.7363 -0.00012207C14.1695 -0.00012207 16.4992 0.903078 18.2962 2.5431C20.0932 4.18093 21.2065 6.41773 21.4299 8.84057C21.6544 11.2611 20.97 13.6642 19.5027 15.606L14.0163 22.8659C13.4808 23.5755 12.6285 23.9999 11.7373 23.9999ZM11.7401 7.64733C11.2097 7.64853 10.7117 7.85519 10.3375 8.22932C9.96276 8.604 9.75615 9.10168 9.75567 9.63069C9.75567 10.1587 9.96164 10.6565 10.3356 11.0305C10.7098 11.4042 11.2079 11.6105 11.7372 11.6105C12.2666 11.6105 12.7647 11.4042 13.1398 11.0296C13.5129 10.6565 13.7188 10.1587 13.7188 9.62889C13.7188 9.0997 13.5128 8.60228 13.1388 8.22827C12.7647 7.85461 12.2678 7.64806 11.7401 7.64733Z" fill="var(--icon-primary-color)"/>
</g>
<defs>
<clipPath id="clip0_146_4046">
<rect width="24" height="24" fill="none"/>
</clipPath>
</defs>
</svg>
