<svg width="112" height="19" viewBox="0 0 112 19" fill="none" xmlns="http://www.w3.org/2000/svg">
<path fill-rule="evenodd" clip-rule="evenodd" d="M108.136 10.0524V10.0133C108.136 8.14999 106.718 6.91275 105.042 6.91275C103.365 6.91275 101.973 8.14875 101.973 10.0133V10.0543C101.973 11.9176 103.368 13.1598 105.042 13.1598C106.715 13.1598 108.136 11.9387 108.136 10.0524ZM98.4301 4.41592H102.021V6.03079C102.459 5.45663 103.049 4.98967 103.737 4.67182C104.425 4.35397 105.19 4.19519 105.963 4.20972C108.916 4.20972 111.724 6.26308 111.724 10.0133V10.0543C111.724 13.8057 108.962 15.8591 105.963 15.8591C105.207 15.8741 104.457 15.7305 103.773 15.4394C103.089 15.1484 102.489 14.718 102.021 14.1821V19.0006H98.4301V4.41592Z" fill="black"/>
<path fill-rule="evenodd" clip-rule="evenodd" d="M27.1606 0.876892H30.517L38.2617 10.0121V0.876892H41.8475V15.6498H38.7549L30.7526 6.32271V15.6498H27.1606V0.876892Z" fill="black"/>
<path fill-rule="evenodd" clip-rule="evenodd" d="M52.5221 9.15244C52.3107 7.72391 51.3656 6.76244 49.8558 6.76244C48.366 6.76244 47.3969 7.70962 47.1145 9.15244H52.5221ZM43.5962 10.0959V10.053C43.5644 9.29461 43.703 8.53821 44.0035 7.82927C44.3041 7.12033 44.7604 6.47348 45.3451 5.92754C45.9298 5.38161 46.6308 4.94786 47.4061 4.65234C48.1814 4.35683 49.0149 4.20563 49.8565 4.20785C54.0822 4.20785 56.0177 7.12019 56.0177 10.3058C56.0177 10.5543 55.9964 10.8512 55.9702 11.1437H47.1613C47.281 11.7921 47.6646 12.377 48.237 12.784C48.8094 13.1911 49.5295 13.3911 50.2567 13.3449C50.8287 13.3523 51.3963 13.2538 51.9244 13.0554C52.4525 12.857 52.9297 12.563 53.3266 12.1915L55.3792 13.8064C54.7561 14.4916 53.9654 15.0375 53.0691 15.401C52.1728 15.7646 51.1954 15.9361 50.2133 15.902C46.4064 15.8995 43.5962 13.5325 43.5962 10.0959Z" fill="black"/>
<path fill-rule="evenodd" clip-rule="evenodd" d="M58.2596 7.14007H56.7484V4.41654H58.2596V1.54767H61.8468V4.41654H64.8251V7.14007H61.8468V11.9393C61.8468 12.6728 62.2029 13.03 63.0046 13.03C63.6233 13.0329 64.2329 12.8951 64.7769 12.6294V15.1871C63.9162 15.6371 62.9336 15.8623 61.9391 15.8374C59.7453 15.8374 58.2589 15.061 58.2589 12.4623L58.2596 7.14007Z" fill="black"/>
<path fill-rule="evenodd" clip-rule="evenodd" d="M93.3768 10.0524V10.0133C93.3768 8.14997 91.9593 6.91273 90.2848 6.91273C88.6104 6.91273 87.2163 8.14873 87.2163 10.0133V10.0543C87.2163 11.9176 88.609 13.1598 90.2848 13.1598C91.9607 13.1598 93.3768 11.9387 93.3768 10.0524ZM83.6739 4.4159H87.2631V6.03077C87.7016 5.45636 88.2915 4.98922 88.9798 4.67135C89.6681 4.35348 90.4333 4.19484 91.2064 4.2097C94.1592 4.2097 96.9674 6.26306 96.9674 10.0133V10.0543C96.9674 13.8057 94.2054 15.8591 91.2064 15.8591C90.45 15.874 89.7001 15.7303 89.0158 15.4392C88.3315 15.1482 87.7315 14.7179 87.2631 14.1821V19.0006H83.6739V4.4159Z" fill="black"/>
<path fill-rule="evenodd" clip-rule="evenodd" d="M76.387 9.5108L74.1912 4.75254L71.994 9.51329L76.387 9.5108ZM72.6029 0.875H75.8704L82.7776 15.6492H78.9892L77.4671 12.3573H70.9133L69.4014 15.6492H65.6957L72.6029 0.875Z" fill="black"/>
<path fill-rule="evenodd" clip-rule="evenodd" d="M0 15.8769H7.5095V6.87689H11.8008V15.8769H19.3103V0.876892H0V15.8769Z" fill="black"/>
</svg>
