<svg width="24" height="24" viewBox="0 0 24 24" fill="none" xmlns="http://www.w3.org/2000/svg">
<path fill-rule="evenodd" clip-rule="evenodd" d="M12 21.5C17.2467 21.5 21.5 17.2467 21.5 12C21.5 6.75329 17.2467 2.5 12 2.5C6.75329 2.5 2.5 6.75329 2.5 12C2.5 17.2467 6.75329 21.5 12 21.5ZM12 23C18.0751 23 23 18.0751 23 12C23 5.92487 18.0751 1 12 1C5.92487 1 1 5.92487 1 12C1 18.0751 5.92487 23 12 23Z" fill="#404040"/>
<path fill-rule="evenodd" clip-rule="evenodd" d="M17.2264 8.43934C17.5193 8.73223 17.5193 9.20711 17.2264 9.5L11.2124 15.9051C10.7659 16.3517 10.0289 16.3058 9.64116 15.8073L6.5 12.8399C6.2457 12.5129 6.3046 12.0417 6.63156 11.7874C6.95852 11.5331 7.42973 11.592 7.68403 11.919L10.5122 14.484L16.1658 8.43934C16.4587 8.14645 16.9335 8.14645 17.2264 8.43934Z" fill="#404040"/>
</svg>
