<svg width="24" height="24" viewBox="0 0 24 24" fill="none" xmlns="http://www.w3.org/2000/svg">
    <path
        d="M2 21.25C2 20.8358 2.33579 20.5 2.75 20.5H21.25C21.6642 20.5 22 20.8358 22 21.25C22 21.6643 21.6642 22 21.25 22H2.75C2.33579 22 2 21.6643 2 21.25Z"
        fill="var(--icon-secondary)"></path>
    <path
        d="M12.2416 16.998C12.6387 16.998 12.9606 16.6841 12.9606 16.297L12.9606 4.39035L16.2255 7.49996C16.5056 7.77431 16.9608 7.77531 17.2422 7.50219C17.5236 7.22908 17.5246 6.78526 17.2445 6.51091L12.8617 2.20457C12.7081 2.05416 12.5019 1.98591 12.3006 1.99995C12.0994 1.98506 11.8929 2.0524 11.7387 2.20211L7.5023 6.32868C7.22091 6.60179 7.21988 7.04561 7.5 7.31996C7.78012 7.59432 8.23531 7.59532 8.5167 7.3222L11.5227 4.3898L11.5227 16.297C11.5227 16.6841 11.8446 16.998 12.2416 16.998Z"
        fill="var(--icon-secondary)"></path>
    <path fill-rule="evenodd" clip-rule="evenodd"
        d="M2.75012 17C3.16434 17 3.50012 17.3358 3.50012 17.75L3.50012 21.25C3.50012 21.6642 3.16422 22 2.75 22C2.33579 22 2 21.6643 2 21.25L2.00012 17.75C2.00012 17.3358 2.33591 17 2.75012 17Z"
        fill="var(--icon-secondary)"></path>
    <path fill-rule="evenodd" clip-rule="evenodd"
        d="M21.2501 17C21.6643 17 22.0001 17.3358 22.0001 17.75L22 21.25C22 21.6643 21.6642 22 21.25 22C20.8358 22 20.5001 21.6642 20.5001 21.25V17.75C20.5001 17.3358 20.8359 17 21.2501 17Z"
        fill="var(--icon-secondary)"></path>
</svg>