<svg width="24" height="24" viewBox="0 0 24 24" fill="none" xmlns="http://www.w3.org/2000/svg">
<path d="M11.9999 13.3491L15.3719 16.7201C15.4604 16.8086 15.5655 16.8778 15.6811 16.9257C15.7968 16.9736 15.9207 16.9982 16.0459 16.9982C16.1711 16.9982 16.295 16.9736 16.4107 16.9257C16.5263 16.8778 16.6314 16.8076 16.7199 16.7191C16.8084 16.6305 16.8786 16.5255 16.9265 16.4098C16.9744 16.2942 16.9991 16.1702 16.9991 16.0451C16.9991 15.9199 16.9744 15.7959 16.9265 15.6803C16.8786 15.5646 16.8084 15.4596 16.7199 15.3711L13.3489 11.9991L16.7199 8.62706C16.8084 8.53855 16.8786 8.43347 16.9265 8.31782C16.9744 8.20218 16.9991 8.07823 16.9991 7.95306C16.9991 7.82788 16.9744 7.70394 16.9265 7.58829C16.8786 7.47265 16.8084 7.36757 16.7199 7.27906C16.6314 7.19055 16.5263 7.12034 16.4107 7.07243C16.295 7.02453 16.1711 6.99988 16.0459 6.99988C15.7931 6.99988 15.5507 7.1003 15.3719 7.27906L11.9999 10.6501L8.62791 7.27906C8.5394 7.19055 8.43432 7.12034 8.31868 7.07243C8.20303 7.02453 8.07909 6.99988 7.95391 6.99988C7.82874 6.99988 7.70479 7.02453 7.58915 7.07243C7.4735 7.12034 7.36842 7.19055 7.27991 7.27906C7.1914 7.36757 7.12119 7.47265 7.07329 7.58829C7.02539 7.70394 7.00073 7.82788 7.00073 7.95306C7.00073 8.07823 7.02539 8.20218 7.07329 8.31782C7.12119 8.43347 7.1914 8.53855 7.27991 8.62706L10.6509 11.9991L7.27991 15.3721C7.1914 15.4606 7.12119 15.5656 7.07329 15.6813C7.02539 15.7969 7.00073 15.9209 7.00073 16.0461C7.00073 16.1712 7.02539 16.2952 7.07329 16.4108C7.12119 16.5265 7.1914 16.6315 7.27991 16.7201C7.36842 16.8086 7.4735 16.8788 7.58915 16.9267C7.70479 16.9746 7.82874 16.9992 7.95391 16.9992C8.07909 16.9992 8.20303 16.9746 8.31868 16.9267C8.43432 16.8788 8.5394 16.8086 8.62791 16.7201L11.9999 13.3491Z" fill="#FF4548"/>
<path fill-rule="evenodd" clip-rule="evenodd" d="M12 0C5.37258 0 0 5.37258 0 12C0 18.6274 5.37258 24 12 24C18.6274 24 24 18.6274 24 12C24 5.37258 18.6274 0 12 0ZM2 12C2 6.47715 6.47715 2 12 2C17.5228 2 22 6.47715 22 12C22 17.5228 17.5228 22 12 22C6.47715 22 2 17.5228 2 12Z" fill="#FF4548"/>
</svg>
