<svg width="20" height="20" viewBox="0 0 20 20" fill="none" xmlns="http://www.w3.org/2000/svg">
<path d="M18.0595 15.9215C19.327 14.2081 20.0076 12.1313 19.9999 9.99998C19.9989 7.76142 19.247 5.58792 17.8646 3.82704C16.4824 2.06617 14.5494 0.819773 12.3752 0.287332C10.201 -0.245286 7.91084 -0.0333766 5.87119 0.889284C5.7887 0.926795 5.72506 0.996128 5.69483 1.08146C5.66461 1.16679 5.6703 1.26084 5.71066 1.3419L6.30764 2.53585C6.34604 2.61265 6.4127 2.67167 6.49359 2.70065C6.57448 2.72963 6.66337 2.72607 6.74177 2.69105C8.33022 1.98368 10.1057 1.81301 11.7997 2.20483C13.4938 2.59665 15.0141 3.52927 16.1309 4.86188C17.2478 6.19449 17.9 7.85475 17.9891 9.59109C18.0783 11.3276 17.5996 13.0458 16.6253 14.4858L15.5686 13.4305C15.5061 13.3681 15.4213 13.3331 15.3329 13.3331C15.2445 13.3331 15.1597 13.3683 15.0973 13.4309C15.0348 13.4935 14.9997 13.5781 14.9997 13.6664V17.3331C14.9997 17.4214 15.0348 17.5064 15.0973 17.5688C15.1599 17.6314 15.2447 17.6664 15.3331 17.6664H18.9998C19.0881 17.6664 19.1729 17.6312 19.2355 17.5688C19.2981 17.5062 19.3331 17.4214 19.3331 17.3331C19.3331 17.2447 19.2979 17.1599 19.2355 17.0974L18.0595 15.9215Z" fill="#48A6EC"/>
<path d="M13.692 17.4641C13.6536 17.3873 13.5869 17.3281 13.5061 17.2993C13.4252 17.2703 13.3363 17.2739 13.2577 17.3089C11.6692 18.0163 9.89378 18.1869 8.19973 17.7951C6.50568 17.4035 4.98532 16.4707 3.8687 15.1381C2.75189 13.8053 2.09962 12.1452 2.01056 10.4089C1.92131 8.67234 2.40007 6.95413 3.37429 5.51414L4.43101 6.56942C4.49359 6.63182 4.57839 6.66685 4.66674 6.66685C4.7551 6.66685 4.8399 6.63165 4.9023 6.56907C4.96488 6.50649 4.9999 6.42187 4.9999 6.33352V2.66687C4.9999 2.57852 4.96488 2.49354 4.9023 2.43114C4.83972 2.36874 4.75492 2.33354 4.66656 2.33354H1.00024C0.911888 2.33354 0.827088 2.36874 0.76451 2.43114C0.701932 2.49372 0.66691 2.57852 0.66691 2.66687C0.66691 2.75523 0.70211 2.84003 0.76451 2.9026L1.94069 4.07877C0.672955 5.79201 -0.00758076 7.86879 6.37047e-05 10.0002C0.00113037 12.2387 0.752955 14.4122 2.13536 16.1731C3.51758 17.934 5.45057 19.1804 7.62479 19.7128C9.79902 20.2454 12.0892 20.0335 14.1288 19.1109C14.2113 19.0733 14.2749 19.004 14.3052 18.9187C14.3354 18.8333 14.3297 18.7393 14.2893 18.6582L13.692 17.4641Z" fill="#48A6EC"/>
</svg>
