<svg width="20" height="20" viewBox="0 0 20 20" fill="none" xmlns="http://www.w3.org/2000/svg">
<path fill-rule="evenodd" clip-rule="evenodd" d="M2.13967 17.1517H18.1838L10.234 2.61766L2.13967 17.1517ZM18.894 18.407H1.42334C0.779144 18.407 0.370851 17.7244 0.681463 17.1666L9.49548 1.34033C9.81866 0.760033 10.6636 0.763193 10.9823 1.3459L19.6389 17.1722C19.9439 17.7298 19.5353 18.407 18.894 18.407ZM11.0126 8.00072V11.8736C11.0126 12.0823 10.9309 12.2823 10.7856 12.4299C10.6402 12.5774 10.443 12.6603 10.2375 12.6603C10.0319 12.6603 9.83476 12.5774 9.68941 12.4299C9.54405 12.2823 9.46239 12.0823 9.46239 11.8736V8.00072C9.46239 7.79208 9.54405 7.592 9.68941 7.44447C9.83476 7.29694 10.0319 7.21406 10.2375 7.21406C10.443 7.21406 10.6402 7.29694 10.7856 7.44447C10.9309 7.592 11.0126 7.79208 11.0126 8.00072ZM10.2378 13.5185C10.4533 13.5186 10.6621 13.5946 10.8286 13.7334C10.9951 13.8723 11.109 14.0654 11.1509 14.28C11.1928 14.4945 11.1601 14.7172 11.0584 14.91C10.9567 15.1028 10.7923 15.2539 10.5932 15.3375C10.394 15.4211 10.1725 15.432 9.96631 15.3684C9.76013 15.3048 9.58205 15.1706 9.46241 14.9887C9.34278 14.8068 9.28899 14.5884 9.31022 14.3707C9.33145 14.1531 9.42637 13.9496 9.57882 13.7951C9.66538 13.7073 9.76813 13.6377 9.8812 13.5902C9.99427 13.5428 10.1154 13.5184 10.2378 13.5185Z" fill="#A7A7A7"/>
</svg>
