<svg width="32" height="16" viewBox="0 0 32 16" fill="none" xmlns="http://www.w3.org/2000/svg">
<rect x="0.5" y="0.5" width="31" height="15" rx="7.5" stroke="#0067C5"/>
<path fill-rule="evenodd" clip-rule="evenodd" d="M12 8C12 9.10457 11.1046 10 10 10C8.89543 10 8 9.10457 8 8C8 6.89543 8.89543 6 10 6C11.1046 6 12 6.89543 12 8ZM18 8C18 9.10457 17.1046 10 16 10C14.8954 10 14 9.10457 14 8C14 6.89543 14.8954 6 16 6C17.1046 6 18 6.89543 18 8ZM22 10C23.1046 10 24 9.10457 24 8C24 6.89543 23.1046 6 22 6C20.8954 6 20 6.89543 20 8C20 9.10457 20.8954 10 22 10Z" fill="#0067C5"/>
</svg>
