<svg width="24" height="20" viewBox="0 0 24 20" fill="none" xmlns="http://www.w3.org/2000/svg">
<path d="M0.51043 19.339L0.510428 19.3381C0.5 13.5511 0.5 7.77463 0.5 1.97286C0.5 1.15335 1.15689 0.5 1.93627 0.5H22.0637C22.8454 0.5 23.5 1.15571 23.5 1.97286V13.0131C23.5 13.8326 22.8431 14.4859 22.0637 14.4859H5.82619H5.6159L5.46883 14.6362L0.751056 19.4573C0.750733 19.4577 0.750408 19.458 0.750083 19.4583C0.692061 19.5156 0.605866 19.5117 0.554994 19.4598L0.555027 19.4598L0.55016 19.455C0.529825 19.4348 0.510429 19.3996 0.51043 19.339Z" stroke="#404040"/>
</svg>
