<svg width="40" height="40" viewBox="0 0 40 40" fill="none" xmlns="http://www.w3.org/2000/svg">
<circle cx="20" cy="20" r="20" fill="white"/>
<path d="M18.5682 20.4254C18.5682 21.408 17.7817 22.2044 16.8114 22.2044C15.8412 22.2044 15.0547 21.408 15.0547 20.4254C15.0547 19.4429 15.8412 18.6465 16.8114 18.6465C17.7817 18.6465 18.5682 19.4429 18.5682 20.4254Z" fill="#0067C5"/>
<path d="M25.244 20.4254C25.244 21.408 24.4575 22.2044 23.4872 22.2044C22.517 22.2044 21.7305 21.408 21.7305 20.4254C21.7305 19.4429 22.517 18.6465 23.4872 18.6465C24.4575 18.6465 25.244 19.4429 25.244 20.4254Z" fill="#0067C5"/>
<path d="M25.5541 11.8863V12.274L25.9295 12.3706C29.1168 13.1903 31.5 16.1133 31.5 19.6316V21.7389C31.5 25.8477 28.1774 29.2032 24.1351 29.2032H23.9189H23.7612L23.6321 29.2936L18.2778 33.0436L18.2584 29.9643L22.9956 26.6453H24.1351C26.8226 26.6453 28.9865 24.4449 28.9865 21.7389V19.6316C28.9865 16.9256 26.8226 14.7253 24.1351 14.7253H15.8649C13.1774 14.7253 11.0135 16.9256 11.0135 19.6316V21.7389C11.0135 24.2035 12.817 26.2491 15.1726 26.5855L15.1725 26.5856L15.1805 26.5866C15.2018 26.5893 15.2234 26.5921 15.2453 26.5949C15.4322 26.6189 15.6366 26.6453 15.8649 26.6453H17.3378V29.2032H15.8649C13.7134 29.2032 11.7675 28.2812 10.4281 26.7713L10.4271 26.7702C9.23444 25.434 8.5 23.6627 8.5 21.7389V19.6316C8.5 16.0633 10.9582 13.1144 14.2227 12.3456L14.6081 12.2549V11.8589V8.5H17.1216V11.64V12.14H17.6216H22.5405H23.0405V11.64V8.5H25.5541V11.8863Z" fill="#0067C5" stroke="white"/>
</svg>
