<svg width="281" height="205" viewBox="0 0 281 205" fill="none" xmlns="http://www.w3.org/2000/svg">
<g filter="url(#filter0_d_998_87586)">
<path d="M212.17 68.0073C211.01 68.0073 209.863 68.0608 208.716 68.155C200.487 52.5978 184.122 41.989 165.248 41.989C141.585 41.989 121.834 58.6758 117.178 80.8879C113.481 79.6641 109.542 78.992 105.44 78.992C84.8932 78.992 68.2188 95.5981 68.2188 116.089C68.2188 136.58 84.8805 153.186 105.44 153.186H212.17C235.766 153.186 254.897 134.12 254.897 110.603C254.897 87.0854 235.767 68.0191 212.17 68.0191V68.0055V68.0073Z" fill="#ACACAC"/>
</g>
<path fill-rule="evenodd" clip-rule="evenodd" d="M229.095 48.201C229.5 45.1127 229.5 41.7492 229.095 38.661C227.608 38.6357 226.358 37.5988 226.085 36.2098H216.827C216.563 37.4532 216.366 38.7868 216.244 40.1862C218.6 40.7277 219.461 43.584 217.728 45.2607C217.315 45.6601 216.787 45.9481 216.197 46.0743C216.31 47.6935 216.526 49.2316 216.828 50.6525H226.085C226.358 49.2631 227.608 48.2263 229.095 48.201ZM213.446 25.217C213.737 25.0784 214.088 25.1938 214.232 25.4746C214.375 25.7557 214.256 26.0958 213.965 26.2344C207.255 29.444 202.929 36.0663 202.929 43.4308C202.929 54.0236 211.804 62.6107 222.752 62.6107C224.91 62.6107 226.997 62.2845 229.03 61.6314C229.337 61.5333 229.668 61.6945 229.77 61.9912C229.871 62.288 229.704 62.6086 229.398 62.7067C221.789 65.1499 213.506 63.2173 207.904 57.7975C201.025 51.1423 199.753 40.7457 204.898 32.7302C206.962 29.5151 209.928 26.9028 213.446 25.217ZM234.153 60.4951C233.882 60.6657 233.519 60.5911 233.342 60.3284C233.166 60.066 233.243 59.7148 233.515 59.5443C235.141 58.5237 236.609 57.2803 237.863 55.8494C238.073 55.6102 238.443 55.5804 238.69 55.7828C238.937 55.9853 238.968 56.3433 238.759 56.5825C237.44 58.087 235.867 59.4205 234.153 60.4951ZM241.095 53.3258C240.938 53.5993 240.581 53.6977 240.299 53.5456C240.016 53.3934 239.914 53.0485 240.071 52.7746C240.829 51.4598 241.431 50.0597 241.849 48.6031C241.935 48.3012 242.258 48.1244 242.57 48.2076C242.882 48.2908 243.065 48.6034 242.979 48.905C242.538 50.4403 241.894 51.942 241.095 53.3258ZM242.832 37.4685C242.926 37.7677 242.751 38.0841 242.441 38.175C242.132 38.2658 241.805 38.0966 241.711 37.7975C240.088 32.6449 236.224 28.3711 231.209 26.0809C230.916 25.9471 230.791 25.6091 230.929 25.3255C231.068 25.042 231.417 24.9206 231.71 25.0544C237.031 27.4855 241.1 31.9984 242.832 37.4685ZM230.253 38.4689C230.681 41.6983 230.681 45.1654 230.253 48.3948C231.262 48.7625 232.015 49.6177 232.218 50.6532H237.778C240.109 46.1201 240.11 40.7436 237.778 36.2105H232.218C232.015 37.2463 231.262 38.1011 230.253 38.4689ZM232.218 35.0732H237.132C234.677 31.1266 230.565 28.3133 225.787 27.4685C227.116 28.6686 228.147 30.5571 228.889 32.6318C230.497 32.5025 231.922 33.5712 232.218 35.0732ZM227.758 32.9382C227.137 31.2181 226.368 29.8087 225.5 28.8214C222.973 25.9457 220.388 27.4626 218.608 30.938C218.01 32.1062 217.497 33.5039 217.094 35.0732H226.085C226.269 34.1424 226.896 33.3552 227.758 32.9382ZM229.152 37.525C228.077 37.525 227.206 36.682 227.206 35.642C227.206 33.9691 229.306 33.1275 230.528 34.3106C231.751 35.4937 230.881 37.525 229.152 37.525ZM229.152 53.1053C228.077 53.1053 227.206 52.2623 227.206 51.2223C227.206 49.5494 229.306 48.7078 230.528 49.8909C231.751 51.0736 230.881 53.1053 229.152 53.1053ZM231.359 53.358C230.726 53.9709 229.836 54.3085 228.889 54.2323C228.147 56.3069 227.116 58.1958 225.787 59.3955C230.565 58.5508 234.677 55.7374 237.132 51.7908H232.218C232.099 52.3968 231.792 52.9389 231.359 53.358ZM227.759 53.9258C226.896 53.5088 226.269 52.7219 226.085 51.7908H217.095C217.475 53.2724 217.954 54.6014 218.511 55.7294C220.283 59.3217 222.915 60.9846 225.501 58.0422C226.369 57.055 227.137 55.6459 227.759 53.9258ZM215.521 45.0091C214.446 45.0091 213.575 44.166 213.575 43.1261C213.575 41.4532 215.674 40.6115 216.897 41.7946C218.12 42.9777 217.249 45.0091 215.521 45.0091ZM215.024 46.1086C212.53 45.7232 211.507 42.7382 213.313 40.9904C213.778 40.5405 214.39 40.232 215.072 40.1366C215.19 38.7625 215.38 37.4467 215.632 36.2109H207.728C205.396 40.744 205.396 46.1204 207.728 50.6535H215.632C215.342 49.2336 215.134 47.7077 215.024 46.1086ZM219.722 27.4681C214.942 28.3119 210.829 31.1259 208.373 35.0735H215.888C216.562 32.334 217.775 29.2253 219.722 27.4681ZM215.887 51.7908H208.373C210.829 55.7384 214.942 58.5522 219.722 59.3959C217.772 57.637 216.56 54.529 215.887 51.7908ZM235.444 55.7117C228.435 62.4935 217.071 62.4935 210.061 55.7117C203.052 48.93 203.052 37.9344 210.061 31.1526C217.07 24.3709 228.435 24.3709 235.444 31.1526C242.453 37.9344 242.453 48.9296 235.444 55.7117Z" fill="url(#paint0_linear_998_87586)"/>
<g filter="url(#filter1_d_998_87586)">
<path d="M207.437 66.4304C206.277 66.4304 205.131 66.4839 203.984 66.5781C195.754 51.0209 179.389 40.4121 160.515 40.4121C136.852 40.4121 117.101 57.0988 112.446 79.3109C108.749 78.0872 104.81 77.4151 100.708 77.4151C80.1608 77.4151 63.4863 94.0212 63.4863 114.512C63.4863 135.003 80.1481 151.609 100.708 151.609H207.437C231.033 151.609 250.164 132.543 250.164 109.026C250.164 85.5084 231.034 66.4422 207.437 66.4422V66.4286V66.4304Z" fill="#E8EEFD"/>
</g>
<path fill-rule="evenodd" clip-rule="evenodd" d="M229.095 48.201C229.5 45.1127 229.5 41.7492 229.095 38.661C227.608 38.6357 226.358 37.5988 226.085 36.2098H216.827C216.563 37.4532 216.366 38.7868 216.244 40.1862C218.6 40.7277 219.461 43.584 217.728 45.2607C217.315 45.6601 216.787 45.9481 216.197 46.0743C216.31 47.6935 216.526 49.2316 216.828 50.6525H226.085C226.358 49.2631 227.608 48.2263 229.095 48.201ZM213.446 25.217C213.737 25.0784 214.088 25.1938 214.232 25.4746C214.375 25.7557 214.256 26.0958 213.965 26.2344C207.255 29.444 202.929 36.0663 202.929 43.4308C202.929 54.0236 211.804 62.6107 222.752 62.6107C224.91 62.6107 226.997 62.2845 229.03 61.6314C229.337 61.5333 229.668 61.6945 229.77 61.9912C229.871 62.288 229.704 62.6086 229.398 62.7067C221.789 65.1499 213.506 63.2173 207.904 57.7975C201.025 51.1423 199.753 40.7457 204.898 32.7302C206.962 29.5151 209.928 26.9028 213.446 25.217ZM234.153 60.4951C233.882 60.6657 233.519 60.5911 233.342 60.3284C233.166 60.066 233.243 59.7148 233.515 59.5443C235.141 58.5237 236.609 57.2803 237.863 55.8494C238.073 55.6102 238.443 55.5804 238.69 55.7828C238.937 55.9853 238.968 56.3433 238.759 56.5825C237.44 58.087 235.867 59.4205 234.153 60.4951ZM241.095 53.3258C240.938 53.5993 240.581 53.6977 240.299 53.5456C240.016 53.3934 239.914 53.0485 240.071 52.7746C240.829 51.4598 241.431 50.0597 241.849 48.6031C241.935 48.3012 242.258 48.1244 242.57 48.2076C242.882 48.2908 243.065 48.6034 242.979 48.905C242.538 50.4403 241.894 51.942 241.095 53.3258ZM242.832 37.4685C242.926 37.7677 242.751 38.0841 242.441 38.175C242.132 38.2658 241.805 38.0966 241.711 37.7975C240.088 32.6449 236.224 28.3711 231.209 26.0809C230.916 25.9471 230.791 25.6091 230.929 25.3255C231.068 25.042 231.417 24.9206 231.71 25.0544C237.031 27.4855 241.1 31.9984 242.832 37.4685ZM230.253 38.4689C230.681 41.6983 230.681 45.1654 230.253 48.3948C231.262 48.7625 232.015 49.6177 232.218 50.6532H237.778C240.109 46.1201 240.11 40.7436 237.778 36.2105H232.218C232.015 37.2463 231.262 38.1011 230.253 38.4689ZM232.218 35.0732H237.132C234.677 31.1266 230.565 28.3133 225.787 27.4685C227.116 28.6686 228.147 30.5571 228.889 32.6318C230.497 32.5025 231.922 33.5712 232.218 35.0732ZM227.758 32.9382C227.137 31.2181 226.368 29.8087 225.5 28.8214C222.973 25.9457 220.388 27.4626 218.608 30.938C218.01 32.1062 217.497 33.5039 217.094 35.0732H226.085C226.269 34.1424 226.896 33.3552 227.758 32.9382ZM229.152 37.525C228.077 37.525 227.206 36.682 227.206 35.642C227.206 33.9691 229.306 33.1275 230.528 34.3106C231.751 35.4937 230.881 37.525 229.152 37.525ZM229.152 53.1053C228.077 53.1053 227.206 52.2623 227.206 51.2223C227.206 49.5494 229.306 48.7078 230.528 49.8909C231.751 51.0736 230.881 53.1053 229.152 53.1053ZM231.359 53.358C230.726 53.9709 229.836 54.3085 228.889 54.2323C228.147 56.3069 227.116 58.1958 225.787 59.3955C230.565 58.5508 234.677 55.7374 237.132 51.7908H232.218C232.099 52.3968 231.792 52.9389 231.359 53.358ZM227.759 53.9258C226.896 53.5088 226.269 52.7219 226.085 51.7908H217.095C217.475 53.2724 217.954 54.6014 218.511 55.7294C220.283 59.3217 222.915 60.9846 225.501 58.0422C226.369 57.055 227.137 55.6459 227.759 53.9258ZM215.521 45.0091C214.446 45.0091 213.575 44.166 213.575 43.1261C213.575 41.4532 215.674 40.6115 216.897 41.7946C218.12 42.9777 217.249 45.0091 215.521 45.0091ZM215.024 46.1086C212.53 45.7232 211.507 42.7382 213.313 40.9904C213.778 40.5405 214.39 40.232 215.072 40.1366C215.19 38.7625 215.38 37.4467 215.632 36.2109H207.728C205.396 40.744 205.396 46.1204 207.728 50.6535H215.632C215.342 49.2336 215.134 47.7077 215.024 46.1086ZM219.722 27.4681C214.942 28.3119 210.829 31.1259 208.373 35.0735H215.888C216.562 32.334 217.775 29.2253 219.722 27.4681ZM215.887 51.7908H208.373C210.829 55.7384 214.942 58.5522 219.722 59.3959C217.772 57.637 216.56 54.529 215.887 51.7908ZM235.444 55.7117C228.435 62.4935 217.071 62.4935 210.061 55.7117C203.052 48.93 203.052 37.9344 210.061 31.1526C217.07 24.3709 228.435 24.3709 235.444 31.1526C242.453 37.9344 242.453 48.9296 235.444 55.7117Z" fill="url(#paint1_linear_998_87586)"/>
<path d="M280.12 197.669L257.596 157.345L258.893 156.624L255.895 151.255C267.224 141.086 270.439 124.114 262.706 110.27C253.726 94.193 233.384 88.4231 217.27 97.3833C201.157 106.343 195.374 126.64 204.354 142.717C212.087 156.561 228.245 162.761 242.873 158.495L245.872 163.864L247.169 163.143L269.694 203.467C270.498 204.908 272.321 205.425 273.765 204.621L278.964 201.73C280.407 200.927 280.926 199.11 280.12 197.669Z" fill="#A6C1FB"/>
<path d="M233.529 152.662C248.015 152.662 259.757 140.946 259.757 126.493C259.757 112.041 248.015 100.324 233.529 100.324C219.044 100.324 207.302 112.041 207.302 126.493C207.302 140.946 219.044 152.662 233.529 152.662Z" fill="white" fill-opacity="0.7"/>
<path d="M220.145 112.328C220.27 112.258 220.39 112.174 220.501 112.073C221.592 111.095 222.802 110.234 224.097 109.514C225.04 108.989 225.378 107.802 224.852 106.862C224.327 105.92 223.136 105.583 222.194 106.108C220.644 106.969 219.196 108.001 217.888 109.173C217.086 109.893 217.019 111.126 217.741 111.927C218.362 112.617 219.365 112.761 220.145 112.328Z" fill="white"/>
<path d="M245.194 147.282C246.137 146.758 246.475 145.57 245.949 144.63C245.424 143.689 244.233 143.352 243.291 143.876C233.796 149.156 221.767 145.744 216.475 136.271C213.759 131.408 213.237 125.595 215.044 120.324C215.394 119.305 214.849 118.197 213.828 117.849C212.806 117.5 211.695 118.044 211.347 119.063C209.181 125.379 209.807 132.343 213.062 138.17C219.403 149.521 233.818 153.61 245.195 147.283L245.194 147.282Z" fill="white"/>
<path fill-rule="evenodd" clip-rule="evenodd" d="M152.979 83.2493H59.3862C57.4806 83.2493 55.9209 84.8046 55.9209 86.7049C55.9209 96.878 55.9218 107.002 55.9418 117.149C55.9381 117.451 56.0489 117.75 56.2759 117.976C56.7234 118.421 57.4497 118.42 57.9 117.971L66.353 109.512H152.978C154.884 109.512 156.442 107.957 156.442 106.057V86.7058C156.442 84.8055 154.884 83.2493 152.979 83.2493Z" fill="url(#paint2_linear_998_87586)"/>
<path fill-rule="evenodd" clip-rule="evenodd" d="M106.055 91.9649H83.3933C82.9611 91.9649 82.6125 92.3146 82.6125 92.7457V93.4088C82.6125 93.8363 82.9611 94.186 83.3933 94.186H106.055C106.488 94.186 106.838 93.8363 106.838 93.4088V92.7457C106.838 92.3146 106.487 91.9649 106.055 91.9649Z" fill="white"/>
<path fill-rule="evenodd" clip-rule="evenodd" d="M137.013 98.042H83.3942C82.962 98.042 82.6134 98.3925 82.6134 98.8228V99.4858C82.6134 99.917 82.962 100.263 83.3942 100.263H137.013C137.446 100.263 137.795 99.917 137.795 99.4858V98.8228C137.795 98.3916 137.445 98.042 137.013 98.042Z" fill="white"/>
<path fill-rule="evenodd" clip-rule="evenodd" d="M73.4596 101.095C76.3239 101.095 78.6598 98.7648 78.6598 95.9088C78.6598 93.0528 76.3239 90.7231 73.4596 90.7231C70.5953 90.7231 68.2595 93.0528 68.2595 95.9088C68.2595 98.7648 70.5953 101.095 73.4596 101.095Z" fill="white"/>
<path fill-rule="evenodd" clip-rule="evenodd" d="M85.2028 135.615H178.795C180.701 135.615 182.261 137.171 182.261 139.071C182.261 149.244 182.26 159.368 182.24 169.515C182.243 169.817 182.133 170.116 181.906 170.342C181.458 170.787 180.732 170.786 180.282 170.337L171.829 161.878H85.2037C83.2981 161.878 81.7393 160.323 81.7393 158.423V139.072C81.7393 137.172 83.2972 135.615 85.2028 135.615Z" fill="url(#paint3_linear_998_87586)"/>
<path fill-rule="evenodd" clip-rule="evenodd" d="M132.127 144.331H154.788C155.221 144.331 155.569 144.681 155.569 145.112V145.775C155.569 146.202 155.221 146.552 154.788 146.552H132.127C131.694 146.552 131.344 146.202 131.344 145.775V145.112C131.344 144.681 131.695 144.331 132.127 144.331Z" fill="white"/>
<path fill-rule="evenodd" clip-rule="evenodd" d="M101.169 150.408H154.787C155.22 150.408 155.568 150.759 155.568 151.189V151.852C155.568 152.283 155.22 152.629 154.787 152.629H101.169C100.736 152.629 100.387 152.283 100.387 151.852V151.189C100.387 150.758 100.737 150.408 101.169 150.408Z" fill="white"/>
<path fill-rule="evenodd" clip-rule="evenodd" d="M164.722 153.461C161.858 153.461 159.522 151.131 159.522 148.275C159.522 145.419 161.858 143.089 164.722 143.089C167.586 143.089 169.922 145.419 169.922 148.275C169.922 151.131 167.586 153.461 164.722 153.461Z" fill="white"/>
<path fill-rule="evenodd" clip-rule="evenodd" d="M227.743 123.175H227.601C226.322 123.175 225.288 124.18 225.288 125.42V134.948C225.288 136.19 226.324 137.192 227.601 137.192H240.327C241.607 137.192 242.64 136.187 242.64 134.948V125.42C242.64 124.178 241.604 123.175 240.327 123.175H230.057V117.993C230.057 115.9 231.806 114.204 233.964 114.204C236.122 114.204 237.871 115.901 237.871 117.993V119.624C237.871 120.244 238.389 120.746 239.028 120.746C239.667 120.746 240.185 120.244 240.185 119.624V117.993C240.185 114.663 237.4 111.962 233.964 111.962C230.529 111.962 227.743 114.662 227.743 117.993V123.175ZM234.746 130.024C235.146 129.775 235.41 129.34 235.41 128.845C235.41 128.071 234.763 127.443 233.964 127.443C233.165 127.443 232.518 128.071 232.518 128.845C232.518 129.34 232.782 129.775 233.182 130.024L232.543 132.371C232.444 132.677 232.645 132.924 233.002 132.924H234.926C235.28 132.924 235.484 132.676 235.385 132.371L234.746 130.024Z" fill="#0BAFFC"/>
<path d="M98.2515 32.9962L94.7477 25.5359L62.8872 0.111279L98.2515 32.9962Z" fill="#0BAFFC"/>
<path d="M62.8872 0.111279L63.2224 0.32187L94.7392 25.4889L94.7746 25.5117L84.6168 34.6923L62.8872 0.111279Z" fill="#0BAFFC"/>
<path d="M62.8096 0L106.978 14.4795L98.3124 22.3141L63.2224 0.32187L62.8096 0Z" fill="#0BAFFC"/>
<path d="M93.9676 25.5109L97.504 33.1154L97.5137 22.3563L62.8096 0L93.9676 25.5109Z" fill="#85A0F6"/>
<path d="M80.9507 150.596C77.7955 156.904 0.499997 141.923 0.5 108.019C0.500001 99.3386 6.02128 74.9038 48.6128 70.9615C91.03 67.0353 118.81 44.1538 98.3026 32.3269" stroke="#0BAFFC" stroke-linecap="round" stroke-linejoin="round" stroke-dasharray="3 3"/>
<defs>
<filter id="filter0_d_998_87586" x="64.2188" y="37.989" width="198.678" height="123.197" filterUnits="userSpaceOnUse" color-interpolation-filters="sRGB">
<feFlood flood-opacity="0" result="BackgroundImageFix"/>
<feColorMatrix in="SourceAlpha" type="matrix" values="0 0 0 0 0 0 0 0 0 0 0 0 0 0 0 0 0 0 127 0" result="hardAlpha"/>
<feOffset dx="2" dy="2"/>
<feGaussianBlur stdDeviation="3"/>
<feComposite in2="hardAlpha" operator="out"/>
<feColorMatrix type="matrix" values="0 0 0 0 0.878431 0 0 0 0 0.878431 0 0 0 0 0.878431 0 0 0 1 0"/>
<feBlend mode="normal" in2="BackgroundImageFix" result="effect1_dropShadow_998_87586"/>
<feBlend mode="normal" in="SourceGraphic" in2="effect1_dropShadow_998_87586" result="shape"/>
</filter>
<filter id="filter1_d_998_87586" x="59.4863" y="36.4121" width="198.678" height="123.197" filterUnits="userSpaceOnUse" color-interpolation-filters="sRGB">
<feFlood flood-opacity="0" result="BackgroundImageFix"/>
<feColorMatrix in="SourceAlpha" type="matrix" values="0 0 0 0 0 0 0 0 0 0 0 0 0 0 0 0 0 0 127 0" result="hardAlpha"/>
<feOffset dx="2" dy="2"/>
<feGaussianBlur stdDeviation="3"/>
<feComposite in2="hardAlpha" operator="out"/>
<feColorMatrix type="matrix" values="0 0 0 0 0.878431 0 0 0 0 0.878431 0 0 0 0 0.878431 0 0 0 1 0"/>
<feBlend mode="normal" in2="BackgroundImageFix" result="effect1_dropShadow_998_87586"/>
<feBlend mode="normal" in="SourceGraphic" in2="effect1_dropShadow_998_87586" result="shape"/>
</filter>
<linearGradient id="paint0_linear_998_87586" x1="222.375" y1="25" x2="222.375" y2="101.179" gradientUnits="userSpaceOnUse">
<stop stop-color="#0BAFFC"/>
<stop offset="1" stop-color="#0BAFFC" stop-opacity="0"/>
</linearGradient>
<linearGradient id="paint1_linear_998_87586" x1="222.375" y1="25" x2="222.375" y2="101.179" gradientUnits="userSpaceOnUse">
<stop stop-color="#0BAFFC"/>
<stop offset="1" stop-color="#0BAFFC" stop-opacity="0"/>
</linearGradient>
<linearGradient id="paint2_linear_998_87586" x1="55.9209" y1="100.778" x2="156.443" y2="100.778" gradientUnits="userSpaceOnUse">
<stop offset="0.0572917" stop-color="#A6C1FB"/>
<stop offset="1" stop-color="#7D97F4"/>
</linearGradient>
<linearGradient id="paint3_linear_998_87586" x1="182.261" y1="153.144" x2="81.7384" y2="153.144" gradientUnits="userSpaceOnUse">
<stop offset="0.0572917" stop-color="#A6C1FB"/>
<stop offset="1" stop-color="#7D97F4"/>
</linearGradient>
</defs>
</svg>
