<svg width="241" height="175" viewBox="0 0 241 175" fill="none" xmlns="http://www.w3.org/2000/svg">
<g filter="url(#filter0_d_1878_5598)">
<path d="M182.431 58.055C181.437 58.055 180.454 58.1006 179.471 58.181C172.417 44.9005 158.39 35.8442 142.212 35.8442C121.93 35.8442 105 50.089 101.01 69.0506C97.8412 68.0059 94.4647 67.4321 90.949 67.4321C73.337 67.4321 59.0447 81.6081 59.0447 99.1005C59.0447 116.593 73.3262 130.769 90.949 130.769H182.431C202.656 130.769 219.054 114.493 219.054 94.4169C219.054 74.3411 202.657 58.065 182.431 58.065V58.0534V58.055Z" fill="white"/>
</g>
<path fill-rule="evenodd" clip-rule="evenodd" d="M196.939 41.1473C197.286 38.5109 197.286 35.6397 196.939 33.0033C195.664 32.9817 194.593 32.0967 194.358 30.9109H186.423C186.197 31.9724 186.028 33.1108 185.924 34.3054C187.943 34.7676 188.681 37.206 187.195 38.6373C186.841 38.9782 186.389 39.2241 185.883 39.3318C185.98 40.714 186.165 42.027 186.424 43.24H194.359C194.593 42.054 195.664 41.1689 196.939 41.1473ZM183.525 21.5268C183.774 21.4084 184.076 21.507 184.199 21.7467C184.321 21.9867 184.219 22.277 183.97 22.3953C178.218 25.1352 174.511 30.7884 174.511 37.0752C174.511 46.1178 182.118 53.4482 191.502 53.4482C193.351 53.4482 195.14 53.1698 196.883 52.6123C197.146 52.5285 197.43 52.6661 197.517 52.9194C197.604 53.1727 197.461 53.4465 197.198 53.5302C190.676 55.6158 183.577 53.9661 178.775 49.3394C172.879 43.6581 171.788 34.783 176.198 27.9405C177.967 25.1959 180.51 22.9659 183.525 21.5268ZM201.274 51.6423C201.041 51.7878 200.73 51.7242 200.579 51.4999C200.428 51.2759 200.494 50.9761 200.727 50.8306C202.121 49.9594 203.379 48.8979 204.454 47.6764C204.634 47.4722 204.951 47.4467 205.163 47.6196C205.375 47.7924 205.401 48.0981 205.222 48.3022C204.091 49.5865 202.743 50.7249 201.274 51.6423ZM207.225 45.5221C207.09 45.7556 206.784 45.8396 206.542 45.7097C206.299 45.5798 206.212 45.2854 206.347 45.0516C206.996 43.9292 207.512 42.734 207.871 41.4905C207.945 41.2328 208.221 41.0819 208.489 41.1529C208.756 41.2239 208.913 41.4908 208.839 41.7483C208.461 43.0589 207.909 44.3408 207.225 45.5221ZM208.713 31.9854C208.794 32.2408 208.644 32.5109 208.378 32.5885C208.113 32.666 207.833 32.5216 207.752 32.2662C206.361 27.8677 203.049 24.2194 198.751 22.2642C198.5 22.15 198.392 21.8615 198.511 21.6194C198.629 21.3774 198.929 21.2738 199.18 21.388C203.741 23.4633 207.228 27.3158 208.713 31.9854ZM197.931 32.8394C198.298 35.5962 198.298 38.5559 197.931 41.3127C198.796 41.6267 199.441 42.3567 199.616 43.2406H204.381C206.379 39.3709 206.38 34.7812 204.381 30.9115H199.616C199.441 31.7957 198.796 32.5254 197.931 32.8394ZM199.616 29.9406H203.828C201.723 26.5716 198.199 24.1699 194.103 23.4488C195.242 24.4733 196.126 26.0854 196.762 27.8565C198.141 27.7461 199.362 28.6584 199.616 29.9406ZM195.793 28.1181C195.26 26.6497 194.601 25.4465 193.857 24.6038C191.691 22.1488 189.475 23.4438 187.95 26.4106C187.437 27.4079 186.997 28.601 186.652 29.9406H194.359C194.516 29.1461 195.053 28.474 195.793 28.1181ZM196.987 32.0336C196.066 32.0336 195.319 31.314 195.319 30.4262C195.319 28.9981 197.119 28.2796 198.167 29.2896C199.215 30.2996 198.469 32.0336 196.987 32.0336ZM196.987 45.3339C196.066 45.3339 195.319 44.6142 195.319 43.7265C195.319 42.2984 197.119 41.5799 198.167 42.5899C199.215 43.5995 198.469 45.3339 196.987 45.3339ZM198.879 45.5496C198.336 46.0728 197.573 46.361 196.762 46.2959C196.126 48.067 195.242 49.6794 194.103 50.7036C198.199 49.9825 201.723 47.5808 203.828 44.2118H199.616C199.514 44.729 199.251 45.1919 198.879 45.5496ZM195.793 46.0343C195.054 45.6783 194.516 45.0066 194.359 44.2118H186.653C186.979 45.4765 187.39 46.6111 187.866 47.574C189.385 50.6406 191.642 52.0601 193.858 49.5483C194.602 48.7056 195.261 47.5027 195.793 46.0343ZM185.303 38.4225C184.382 38.4225 183.635 37.7028 183.635 36.815C183.635 35.387 185.435 34.6685 186.483 35.6784C187.531 36.6884 186.785 38.4225 185.303 38.4225ZM184.878 39.3611C182.74 39.0321 181.863 36.4839 183.411 34.9919C183.81 34.6078 184.334 34.3444 184.919 34.2631C185.02 33.0901 185.182 31.9668 185.399 30.9118H178.624C176.625 34.7815 176.625 39.3712 178.624 43.2409H185.399C185.15 42.0288 184.972 40.7262 184.878 39.3611ZM188.905 23.4485C184.808 24.1688 181.282 26.571 179.177 29.9409H185.618C186.196 27.6023 187.236 24.9485 188.905 23.4485ZM185.618 44.2118H179.177C181.282 47.5817 184.808 49.9836 188.904 50.7039C187.233 49.2024 186.195 46.5492 185.618 44.2118ZM202.381 47.5589C196.373 53.3482 186.632 53.3482 180.624 47.5589C174.616 41.7696 174.616 32.3831 180.624 26.5938C186.632 20.8045 196.373 20.8045 202.381 26.5938C208.388 32.3831 208.388 41.7693 202.381 47.5589Z" fill="url(#paint0_linear_1878_5598)"/>
<g opacity="0.5" filter="url(#filter1_d_1878_5598)">
<path d="M178.375 56.7088C177.381 56.7088 176.398 56.7544 175.415 56.8348C168.361 43.5543 154.334 34.498 138.156 34.498C117.874 34.498 100.944 48.7428 96.9537 67.7044C93.785 66.6597 90.4086 66.086 86.8929 66.086C69.2809 66.086 54.9885 80.2619 54.9885 97.7543C54.9885 115.247 69.27 129.423 86.8929 129.423H178.375C198.6 129.423 214.998 113.147 214.998 93.0707C214.998 72.9949 198.601 56.7188 178.375 56.7188V56.7072V56.7088Z" fill="#E0E0E0"/>
</g>
<path fill-rule="evenodd" clip-rule="evenodd" d="M196.939 41.1473C197.286 38.5109 197.286 35.6397 196.939 33.0033C195.664 32.9817 194.593 32.0967 194.358 30.9109H186.423C186.197 31.9724 186.028 33.1108 185.924 34.3054C187.943 34.7676 188.681 37.206 187.195 38.6373C186.841 38.9782 186.389 39.2241 185.883 39.3318C185.98 40.714 186.165 42.027 186.424 43.24H194.359C194.593 42.054 195.664 41.1689 196.939 41.1473ZM183.525 21.5268C183.774 21.4084 184.076 21.507 184.199 21.7467C184.321 21.9867 184.219 22.277 183.97 22.3953C178.218 25.1352 174.511 30.7884 174.511 37.0752C174.511 46.1178 182.118 53.4482 191.502 53.4482C193.351 53.4482 195.14 53.1698 196.883 52.6123C197.146 52.5285 197.43 52.6661 197.517 52.9194C197.604 53.1727 197.461 53.4465 197.198 53.5302C190.676 55.6158 183.577 53.9661 178.775 49.3394C172.879 43.6581 171.788 34.783 176.198 27.9405C177.967 25.1959 180.51 22.9659 183.525 21.5268ZM201.274 51.6423C201.041 51.7878 200.73 51.7242 200.579 51.4999C200.428 51.2759 200.494 50.9761 200.727 50.8306C202.121 49.9594 203.379 48.8979 204.454 47.6764C204.634 47.4722 204.951 47.4467 205.163 47.6196C205.375 47.7924 205.401 48.0981 205.222 48.3022C204.091 49.5865 202.743 50.7249 201.274 51.6423ZM207.225 45.5221C207.09 45.7556 206.784 45.8396 206.542 45.7097C206.299 45.5798 206.212 45.2854 206.347 45.0516C206.996 43.9292 207.512 42.734 207.871 41.4905C207.945 41.2328 208.221 41.0819 208.489 41.1529C208.756 41.2239 208.913 41.4908 208.839 41.7483C208.461 43.0589 207.909 44.3408 207.225 45.5221ZM208.713 31.9854C208.794 32.2408 208.644 32.5109 208.378 32.5885C208.113 32.666 207.833 32.5216 207.752 32.2662C206.361 27.8677 203.049 24.2194 198.751 22.2642C198.5 22.15 198.392 21.8615 198.511 21.6194C198.629 21.3774 198.929 21.2738 199.18 21.388C203.741 23.4633 207.228 27.3158 208.713 31.9854ZM197.931 32.8394C198.298 35.5962 198.298 38.5559 197.931 41.3127C198.796 41.6267 199.441 42.3567 199.616 43.2406H204.381C206.379 39.3709 206.38 34.7812 204.381 30.9115H199.616C199.441 31.7957 198.796 32.5254 197.931 32.8394ZM199.616 29.9406H203.828C201.723 26.5716 198.199 24.1699 194.103 23.4488C195.242 24.4733 196.126 26.0854 196.762 27.8565C198.141 27.7461 199.362 28.6584 199.616 29.9406ZM195.793 28.1181C195.26 26.6497 194.601 25.4465 193.857 24.6038C191.691 22.1488 189.475 23.4438 187.95 26.4106C187.437 27.4079 186.997 28.601 186.652 29.9406H194.359C194.516 29.1461 195.053 28.474 195.793 28.1181ZM196.987 32.0336C196.066 32.0336 195.319 31.314 195.319 30.4262C195.319 28.9981 197.119 28.2796 198.167 29.2896C199.215 30.2996 198.469 32.0336 196.987 32.0336ZM196.987 45.3339C196.066 45.3339 195.319 44.6142 195.319 43.7265C195.319 42.2984 197.119 41.5799 198.167 42.5899C199.215 43.5995 198.469 45.3339 196.987 45.3339ZM198.879 45.5496C198.336 46.0728 197.573 46.361 196.762 46.2959C196.126 48.067 195.242 49.6794 194.103 50.7036C198.199 49.9825 201.723 47.5808 203.828 44.2118H199.616C199.514 44.729 199.251 45.1919 198.879 45.5496ZM195.793 46.0343C195.054 45.6783 194.516 45.0066 194.359 44.2118H186.653C186.979 45.4765 187.39 46.6111 187.866 47.574C189.385 50.6406 191.642 52.0601 193.858 49.5483C194.602 48.7056 195.261 47.5027 195.793 46.0343ZM185.303 38.4225C184.382 38.4225 183.635 37.7028 183.635 36.815C183.635 35.387 185.435 34.6685 186.483 35.6784C187.531 36.6884 186.785 38.4225 185.303 38.4225ZM184.878 39.3611C182.74 39.0321 181.863 36.4839 183.411 34.9919C183.81 34.6078 184.334 34.3444 184.919 34.2631C185.02 33.0901 185.182 31.9668 185.399 30.9118H178.624C176.625 34.7815 176.625 39.3712 178.624 43.2409H185.399C185.15 42.0288 184.972 40.7262 184.878 39.3611ZM188.905 23.4485C184.808 24.1688 181.282 26.571 179.177 29.9409H185.618C186.196 27.6023 187.236 24.9485 188.905 23.4485ZM185.618 44.2118H179.177C181.282 47.5817 184.808 49.9836 188.904 50.7039C187.233 49.2024 186.195 46.5492 185.618 44.2118ZM202.381 47.5589C196.373 53.3482 186.632 53.3482 180.624 47.5589C174.616 41.7696 174.616 32.3831 180.624 26.5938C186.632 20.8045 196.373 20.8045 202.381 26.5938C208.388 32.3831 208.388 41.7693 202.381 47.5589Z" fill="#A7A7A7"/>
<path d="M240.675 168.742L221.368 134.319L222.48 133.703L219.91 129.12C229.621 120.439 232.376 105.951 225.748 94.1331C218.051 80.4088 200.614 75.4832 186.803 83.1322C172.992 90.7811 168.035 108.107 175.732 121.832C182.361 133.65 196.21 138.942 208.749 135.301L211.319 139.884L212.431 139.268L231.738 173.692C232.427 174.921 233.99 175.363 235.227 174.677L239.683 172.209C240.921 171.524 241.365 169.972 240.675 168.742Z" fill="#E0E0E0"/>
<path d="M200.74 130.321C213.156 130.321 223.221 120.319 223.221 107.982C223.221 95.6444 213.156 85.6428 200.74 85.6428C188.324 85.6428 178.259 95.6444 178.259 107.982C178.259 120.319 188.324 130.321 200.74 130.321Z" fill="white" fill-opacity="0.7"/>
<path d="M189.267 95.8899C189.375 95.8303 189.478 95.7584 189.572 95.6726C190.508 94.8375 191.545 94.1021 192.655 93.4874C193.463 93.0397 193.753 92.026 193.302 91.2233C192.852 90.4199 191.831 90.1323 191.024 90.58C189.695 91.3154 188.454 92.1961 187.333 93.1967C186.645 93.8114 186.588 94.8638 187.207 95.5473C187.739 96.1365 188.599 96.2595 189.267 95.8899Z" fill="white"/>
<path d="M210.738 125.729C211.546 125.281 211.836 124.267 211.385 123.465C210.934 122.661 209.914 122.374 209.107 122.821C200.968 127.329 190.657 124.416 186.121 116.329C183.793 112.178 183.346 107.216 184.895 102.716C185.195 101.846 184.728 100.9 183.852 100.603C182.977 100.305 182.024 100.769 181.726 101.639C179.87 107.031 180.406 112.976 183.196 117.95C188.631 127.64 200.987 131.131 210.738 125.729L210.738 125.729Z" fill="white"/>
<path fill-rule="evenodd" clip-rule="evenodd" d="M131.696 71.0664H51.4739C49.8405 71.0664 48.5037 72.3941 48.5037 74.0163C48.5037 82.7007 48.5044 91.3433 48.5216 100.005C48.5184 100.263 48.6134 100.519 48.8079 100.711C49.1916 101.091 49.8141 101.09 50.2 100.707L57.4454 93.4859H131.695C133.329 93.4859 134.665 92.1583 134.665 90.536V74.0171C134.665 72.3948 133.33 71.0664 131.696 71.0664Z" fill="#E0E0E0"/>
<path fill-rule="evenodd" clip-rule="evenodd" d="M91.4757 78.5066H72.0514C71.681 78.5066 71.3822 78.8051 71.3822 79.1731V79.7391C71.3822 80.1041 71.681 80.4026 72.0514 80.4026H91.4757C91.8469 80.4026 92.1465 80.1041 92.1465 79.7391V79.1731C92.1465 78.8051 91.8461 78.5066 91.4757 78.5066Z" fill="white"/>
<path fill-rule="evenodd" clip-rule="evenodd" d="M118.011 83.6943H72.0522C71.6818 83.6943 71.383 83.9935 71.383 84.3608V84.9269C71.383 85.2949 71.6818 85.5903 72.0522 85.5903H118.011C118.382 85.5903 118.682 85.2949 118.682 84.9269V84.3608C118.682 83.9928 118.381 83.6943 118.011 83.6943Z" fill="white"/>
<path fill-rule="evenodd" clip-rule="evenodd" d="M63.5368 86.3001C65.9919 86.3001 67.9941 84.3113 67.9941 81.8733C67.9941 79.4353 65.9919 77.4465 63.5368 77.4465C61.0818 77.4465 59.0796 79.4353 59.0796 81.8733C59.0796 84.3113 61.0818 86.3001 63.5368 86.3001Z" fill="white"/>
<path fill-rule="evenodd" clip-rule="evenodd" d="M73.6021 115.769H153.824C155.458 115.769 156.795 117.097 156.795 118.719C156.795 127.404 156.794 136.046 156.777 144.708C156.78 144.966 156.685 145.221 156.49 145.414C156.107 145.794 155.484 145.793 155.098 145.409L147.853 138.189H73.6029C71.9695 138.189 70.6335 136.861 70.6335 135.239V118.72C70.6335 117.098 71.9688 115.769 73.6021 115.769Z" fill="#E0E0E0"/>
<path fill-rule="evenodd" clip-rule="evenodd" d="M113.823 123.209H133.247C133.617 123.209 133.916 123.508 133.916 123.876V124.442C133.916 124.807 133.617 125.105 133.247 125.105H113.823C113.451 125.105 113.152 124.807 113.152 124.442V123.876C113.152 123.508 113.452 123.209 113.823 123.209Z" fill="white"/>
<path fill-rule="evenodd" clip-rule="evenodd" d="M87.2875 128.397H133.246C133.617 128.397 133.915 128.696 133.915 129.064V129.63C133.915 129.998 133.617 130.293 133.246 130.293H87.2875C86.9164 130.293 86.6168 129.998 86.6168 129.63V129.064C86.6168 128.696 86.9171 128.397 87.2875 128.397Z" fill="white"/>
<path fill-rule="evenodd" clip-rule="evenodd" d="M141.761 131.003C139.306 131.003 137.304 129.014 137.304 126.576C137.304 124.138 139.306 122.149 141.761 122.149C144.217 122.149 146.219 124.138 146.219 126.576C146.219 129.014 144.217 131.003 141.761 131.003Z" fill="white"/>
<path opacity="0.8" fill-rule="evenodd" clip-rule="evenodd" d="M195.78 105.15H195.658C194.561 105.15 193.675 106.007 193.675 107.066V115.2C193.675 116.26 194.563 117.115 195.658 117.115H206.566C207.663 117.115 208.548 116.258 208.548 115.2V107.066C208.548 106.005 207.661 105.15 206.566 105.15H197.763V100.726C197.763 98.9394 199.262 97.4915 201.112 97.4915C202.962 97.4915 204.461 98.94 204.461 100.726V102.118C204.461 102.647 204.905 103.076 205.452 103.076C206 103.076 206.444 102.647 206.444 102.118V100.726C206.444 97.883 204.057 95.5769 201.112 95.5769C198.167 95.5769 195.78 97.8821 195.78 100.726V105.15ZM201.782 110.996C202.125 110.783 202.351 110.412 202.351 109.99C202.351 109.329 201.796 108.793 201.112 108.793C200.427 108.793 199.872 109.329 199.872 109.99C199.872 110.412 200.099 110.784 200.441 110.996L199.894 113C199.809 113.261 199.982 113.472 200.287 113.472H201.936C202.24 113.472 202.415 113.26 202.33 113L201.782 110.996Z" fill="#A7A7A7"/>
<g opacity="0.8">
<path d="M84.787 28.1675L81.7838 21.7989L54.4748 0.0949941L84.787 28.1675Z" fill="#A7A7A7"/>
<path d="M54.4748 0.0949941L54.762 0.274767L81.7765 21.7588L81.8068 21.7783L73.1001 29.6154L54.4748 0.0949941Z" fill="#A7A7A7"/>
<path d="M54.4082 0L92.2672 12.3606L84.8392 19.0486L54.762 0.274767L54.4082 0Z" fill="#A7A7A7"/>
</g>
<path d="M81.115 21.7776L84.1463 28.2692L84.1546 19.0847L54.4082 0L81.115 21.7776Z" fill="white"/>
<path opacity="0.8" d="M69.9577 128.558C67.2533 133.942 0.999997 121.154 1 92.2116C1 84.8013 5.73252 63.9423 42.2395 60.577C78.5972 57.2253 102.408 37.6923 84.8308 27.5962" stroke="#A7A7A7" stroke-linecap="round" stroke-linejoin="round" stroke-dasharray="3 3"/>
<defs>
<filter id="filter0_d_1878_5598" x="55.0447" y="31.8442" width="172.01" height="106.925" filterUnits="userSpaceOnUse" color-interpolation-filters="sRGB">
<feFlood flood-opacity="0" result="BackgroundImageFix"/>
<feColorMatrix in="SourceAlpha" type="matrix" values="0 0 0 0 0 0 0 0 0 0 0 0 0 0 0 0 0 0 127 0" result="hardAlpha"/>
<feOffset dx="2" dy="2"/>
<feGaussianBlur stdDeviation="3"/>
<feComposite in2="hardAlpha" operator="out"/>
<feColorMatrix type="matrix" values="0 0 0 0 0.878431 0 0 0 0 0.878431 0 0 0 0 0.878431 0 0 0 1 0"/>
<feBlend mode="normal" in2="BackgroundImageFix" result="effect1_dropShadow_1878_5598"/>
<feBlend mode="normal" in="SourceGraphic" in2="effect1_dropShadow_1878_5598" result="shape"/>
</filter>
<filter id="filter1_d_1878_5598" x="50.9885" y="30.498" width="172.01" height="106.925" filterUnits="userSpaceOnUse" color-interpolation-filters="sRGB">
<feFlood flood-opacity="0" result="BackgroundImageFix"/>
<feColorMatrix in="SourceAlpha" type="matrix" values="0 0 0 0 0 0 0 0 0 0 0 0 0 0 0 0 0 0 127 0" result="hardAlpha"/>
<feOffset dx="2" dy="2"/>
<feGaussianBlur stdDeviation="3"/>
<feComposite in2="hardAlpha" operator="out"/>
<feColorMatrix type="matrix" values="0 0 0 0 0.878431 0 0 0 0 0.878431 0 0 0 0 0.878431 0 0 0 1 0"/>
<feBlend mode="normal" in2="BackgroundImageFix" result="effect1_dropShadow_1878_5598"/>
<feBlend mode="normal" in="SourceGraphic" in2="effect1_dropShadow_1878_5598" result="shape"/>
</filter>
<linearGradient id="paint0_linear_1878_5598" x1="191.179" y1="21.3416" x2="191.179" y2="86.3724" gradientUnits="userSpaceOnUse">
<stop stop-color="#0BAFFC"/>
<stop offset="1" stop-color="#0BAFFC" stop-opacity="0"/>
</linearGradient>
</defs>
</svg>
