<svg width="20" height="20" viewBox="0 0 20 20" fill="none" xmlns="http://www.w3.org/2000/svg">
<path d="M6.1536 18.8162L5.95577 18.969C5.82237 18.7964 5.75 18.5844 5.75 18.3662C5.75 18.148 5.82237 17.936 5.95577 17.7633L5.96103 17.7565L12.407 9.98303L5.95112 2.18264L5.9428 2.16958C5.83321 1.99771 5.7794 1.79617 5.78875 1.59254C5.79806 1.38947 5.86973 1.19422 5.99397 1.03336C6.05536 0.952204 6.13341 0.885103 6.22287 0.836565C6.31288 0.787725 6.41235 0.758821 6.51452 0.751816C6.6167 0.74481 6.71918 0.759867 6.81502 0.795961C6.91086 0.832054 6.99781 0.888342 7.06998 0.96101L7.07789 0.968971L14.032 9.35641C14.1766 9.52885 14.2552 9.748 14.2526 9.97296C14.252 10.1933 14.1765 10.4069 14.0385 10.5787L14.0361 10.5817L7.09489 18.9549C7.03116 19.041 6.94931 19.1121 6.85508 19.1631C6.75813 19.2157 6.65056 19.2457 6.54039 19.2509L6.52841 19.2515C6.41852 19.2514 6.31008 19.2261 6.21127 19.178C6.11246 19.1299 6.02585 19.06 5.95798 18.9736L6.1546 18.8192C6.15461 18.8192 6.1546 18.8192 6.1546 18.8192L6.1536 18.8162Z" fill="#404040"/>
</svg>
