<svg width="20" height="20" viewBox="0 0 20 20" fill="none" xmlns="http://www.w3.org/2000/svg">
<path d="M13.2942 7.00053C13.5552 7.00053 13.8056 7.10367 13.9909 7.28748L13.9892 7.28331C14.1739 7.46816 14.2776 7.71873 14.2776 7.97998C14.2776 8.24123 14.1739 8.4918 13.9892 8.67665L9.74673 12.9208C9.56189 13.1054 9.31132 13.2091 9.05007 13.2091C8.78881 13.2091 8.53824 13.1054 8.3534 12.9208L6.12173 10.6891C6.02385 10.5991 5.9452 10.4902 5.89052 10.369C5.83585 10.2478 5.80629 10.1168 5.80362 9.98383C5.80096 9.85088 5.82524 9.71876 5.875 9.59545C5.92476 9.47213 5.99898 9.36017 6.09318 9.26631C6.18738 9.17245 6.2996 9.09864 6.4231 9.04932C6.54659 9 6.67879 8.97619 6.81173 8.97934C6.94467 8.98248 7.07559 9.01252 7.19662 9.06762C7.31764 9.12273 7.42625 9.20177 7.5159 9.29998L9.0509 10.8341L12.5976 7.28748C12.7828 7.10367 13.0332 7.00053 13.2942 7.00053Z" fill="#48A08B"/>
<path fill-rule="evenodd" clip-rule="evenodd" d="M10 0C4.47715 0 0 4.47715 0 10C0 15.5228 4.47715 20 10 20C15.5228 20 20 15.5228 20 10C20 4.47715 15.5228 0 10 0ZM1.66667 10C1.66667 5.39763 5.39763 1.66667 10 1.66667C14.6024 1.66667 18.3333 5.39763 18.3333 10C18.3333 14.6024 14.6024 18.3333 10 18.3333C5.39763 18.3333 1.66667 14.6024 1.66667 10Z" fill="#48A08B"/>
</svg>
