<svg width="24" height="24" viewBox="0 0 24 24" fill="none" xmlns="http://www.w3.org/2000/svg">
<path fill-rule="evenodd" clip-rule="evenodd" d="M18.7335 20.3636C18.7321 20.4634 18.6917 20.5587 18.6207 20.6292C18.5497 20.6997 18.4539 20.7399 18.3535 20.7413H5.64651C5.54614 20.7399 5.45026 20.6997 5.37928 20.6292C5.30831 20.5587 5.26786 20.4634 5.26654 20.3636V10.0973H10.2881C10.7593 10.0867 11.207 9.89113 11.5334 9.55333C11.8598 9.21553 12.0383 8.76301 12.0299 8.29475V3.25976H18.3535C18.4539 3.26106 18.5497 3.30126 18.6207 3.3718C18.6917 3.44234 18.7321 3.53763 18.7335 3.63738V20.3636ZM8.86353 5.43286C9.70857 4.62659 10.3418 4.01937 10.7633 3.6112V8.29475C10.7704 8.42891 10.7249 8.56057 10.6362 8.662C10.5476 8.76343 10.4228 8.82671 10.2881 8.83853H5.33544C5.92515 8.23634 7.65271 6.58487 8.86353 5.43286ZM18.3535 2H10.8556C10.764 2.00041 10.6736 2.0203 10.5904 2.05834C10.5072 2.09638 10.4331 2.15169 10.3733 2.22053C10.2355 2.37762 9.03983 3.51855 7.98404 4.52455C5.41853 6.97558 4.31005 8.04199 4.11956 8.3028C4.04166 8.41009 3.99982 8.53907 4 8.67137V20.3636C4.00027 20.7975 4.17383 21.2136 4.48255 21.5204C4.79127 21.8272 5.20991 21.9997 5.64651 22H18.3535C18.79 21.9995 19.2085 21.8269 19.5172 21.5201C19.8258 21.2134 19.9995 20.7975 20 20.3636V3.63637C19.9995 3.20254 19.8258 2.78664 19.5172 2.47987C19.2085 2.17311 18.79 2.00053 18.3535 2Z" fill="#6F6F6F"/>
</svg>
