<svg width="13" height="10" viewBox="0 0 13 10" fill="none" xmlns="http://www.w3.org/2000/svg">
<path fill-rule="evenodd" clip-rule="evenodd" d="M12.4992 1.45002C12.5086 1.69165 12.4221 1.92718 12.2585 2.10505C12.095 2.28292 11.8677 2.38863 11.6264 2.39902H1.38905C1.1481 2.38336 0.922121 2.27645 0.757004 2.10002C0.591886 1.92358 0.5 1.69083 0.5 1.44902C0.5 1.20721 0.591886 0.974466 0.757004 0.798029C0.922121 0.621592 1.1481 0.514689 1.38905 0.499023H11.6264C11.7461 0.504039 11.8636 0.532621 11.9722 0.583136C12.0809 0.63365 12.1785 0.705108 12.2596 0.793425C12.3406 0.881742 12.4035 0.985187 12.4446 1.09785C12.4857 1.21051 12.5043 1.33018 12.4992 1.45002ZM10.9253 4.99995C10.9319 5.1181 10.9152 5.23639 10.8761 5.34806C10.837 5.45973 10.7763 5.56258 10.6975 5.65073C10.6186 5.73888 10.5232 5.81059 10.4167 5.86176C10.3101 5.91293 10.1945 5.94256 10.0765 5.94895H2.93874C2.70216 5.92718 2.48225 5.81769 2.32213 5.64193C2.16201 5.46618 2.07324 5.23686 2.07324 4.99895C2.07324 4.76104 2.16201 4.53172 2.32213 4.35596C2.48225 4.18021 2.70216 4.07071 2.93874 4.04895H10.0765C10.1947 4.05533 10.3105 4.08503 10.4171 4.13633C10.5238 4.18762 10.6193 4.25952 10.6982 4.34788C10.7771 4.43624 10.8377 4.53933 10.8767 4.65123C10.9157 4.76313 10.9322 4.88164 10.9253 4.99995ZM8.80062 9.22299C8.97833 9.04502 9.07818 8.80364 9.07818 8.55195C9.07857 8.4272 9.05438 8.30361 9.00698 8.18825C8.95958 8.07288 8.88992 7.96802 8.80197 7.87967C8.71403 7.79132 8.60954 7.72123 8.49449 7.6734C8.37944 7.62557 8.2561 7.60095 8.13153 7.60095H4.88517C4.63357 7.60095 4.39228 7.70104 4.21437 7.8792C4.03647 8.05736 3.93652 8.29899 3.93652 8.55095C3.93652 8.80291 4.03647 9.04454 4.21437 9.2227C4.39228 9.40086 4.63357 9.50095 4.88517 9.50095H8.13053C8.38186 9.50095 8.6229 9.40096 8.80062 9.22299Z" fill="#404040"/>
</svg>
