<svg width="22" height="20" viewBox="0 0 22 20" fill="none" xmlns="http://www.w3.org/2000/svg">
<path d="M12.976 5.42888V9.38911C12.976 9.48511 13.0234 9.57426 13.1012 9.62684L15.984 11.5732C16.3732 11.835 16.4782 12.3676 16.2187 12.7619C16.0551 13.0099 15.7877 13.1436 15.5135 13.1436C15.3521 13.1436 15.1885 13.0967 15.0441 12.9996L12.1614 11.0532C11.6108 10.6818 11.2824 10.0589 11.2824 9.38911V5.42888C11.2824 4.95571 11.6615 4.57169 12.1286 4.57169C12.5958 4.57169 12.9749 4.95571 12.9749 5.42888H12.976ZM12.1298 0C7.3718 0 3.32125 3.44363 2.44119 8.10789L1.44266 7.10555C1.11207 6.77182 0.575011 6.7741 0.245552 7.11126C-0.0839073 7.44843 -0.0816507 7.99017 0.251193 8.3239L2.5292 10.6097C2.68829 10.7686 2.90153 10.8578 3.12493 10.8578H3.12832C3.35285 10.8578 3.56722 10.7652 3.72518 10.604L5.96031 8.31819C6.28977 7.98217 6.28751 7.43928 5.95467 7.10555C5.62408 6.77182 5.08702 6.7741 4.75756 7.11126L4.30512 7.573C5.33502 4.15224 8.48316 1.71324 12.1275 1.71324C16.6384 1.71324 20.3076 5.43002 20.3076 9.99943C20.3076 14.5688 16.6384 18.2856 12.1275 18.2856C9.62836 18.2856 7.30297 17.1541 5.74819 15.1792C5.45597 14.81 4.92567 14.7494 4.55898 15.0443C4.19342 15.3392 4.13362 15.8786 4.42472 16.2489C6.30331 18.6331 9.11048 20 12.1275 20C17.5715 20 22 15.514 22 9.99943C22 4.48483 17.574 0 12.13 0L12.1298 0Z" fill="#404040"/>
</svg>
