<svg width="49" height="48" viewBox="0 0 49 48" fill="none" xmlns="http://www.w3.org/2000/svg">
<rect x="0.5" width="48" height="48" rx="4" fill="#E8EEFD"/>
<g clip-path="url(#clip0_2707_85129)">
<path d="M19.1667 14.667C19.1667 12.4579 20.9575 10.667 23.1667 10.667H36.5C38.7091 10.667 40.5 12.4579 40.5 14.667V20.0003C40.5 22.2095 38.7091 24.0003 36.5 24.0003H23.1667C20.9575 24.0003 19.1667 22.2095 19.1667 20.0003V14.667Z" fill="#C8C8C8"/>
<path fill-rule="evenodd" clip-rule="evenodd" d="M21.9821 31.867C22.153 31.867 22.3227 31.8969 22.4833 31.9553L29.7 34.5795V33.3337C29.7 32.5236 30.3566 31.867 31.1667 31.867C33.3022 31.867 35.0333 30.1358 35.0333 28.0003V20.0003C35.0333 17.8648 33.3022 16.1337 31.1667 16.1337H13.8333C11.6978 16.1337 9.96667 17.8648 9.96667 20.0003V28.0003C9.96667 30.1358 11.6978 31.867 13.8333 31.867H21.9821ZM31.1667 36.6735L21.9821 33.3337H13.8333C10.8878 33.3337 8.5 30.9458 8.5 28.0003V20.0003C8.5 17.0548 10.8878 14.667 13.8333 14.667H31.1667C34.1122 14.667 36.5 17.0548 36.5 20.0003V28.0003C36.5 30.9458 34.1122 33.3337 31.1667 33.3337V36.6735Z" fill="#A7A7A7"/>
</g>
<defs>
<clipPath id="clip0_2707_85129">
<rect width="32" height="32" fill="white" transform="translate(8.5 8)"/>
</clipPath>
</defs>
</svg>
