<svg width="137" height="118" viewBox="0 0 137 118" fill="none" xmlns="http://www.w3.org/2000/svg">
<g filter="url(#filter0_d_998_108743)">
<path d="M115.072 35.2593H28.4092C26.9044 35.2593 25.6875 36.4839 25.6875 37.9981V100.88C25.6875 102.394 26.9044 103.619 28.4092 103.619H115.072C116.576 103.619 117.793 102.394 117.793 100.88V37.9981C117.793 36.4839 116.576 35.2593 115.072 35.2593Z" fill="#E8EEFD"/>
</g>
<path d="M56.024 29.5027C53.9683 29.5027 52.3001 31.1637 52.3001 33.2107V35.5911C52.3001 37.6381 53.9683 39.2991 56.024 39.2991H95.1345C97.1902 39.2991 98.8584 37.6381 98.8584 35.5911V33.2107C98.8584 31.1637 97.1902 29.5027 95.1345 29.5027H56.024Z" fill="#8099F5"/>
<path d="M49.4038 52.869C48.6551 50.3774 46.9737 48.3239 44.6751 47.0945C43.1711 46.2901 41.4766 45.8846 39.7821 45.9369L39.7624 49.076C40.9512 49.0237 42.1334 49.2918 43.1842 49.8542C46.4023 51.5807 47.6108 55.5961 45.8769 58.8006L45.8638 58.8267L48.6222 60.3047L48.6616 60.2524C49.8766 57.9962 50.1459 55.3607 49.3972 52.869H49.4038Z" fill="#8099F5"/>
<path d="M73.4743 47.2841H53.4166C52.7993 47.2841 52.3001 47.7811 52.3001 48.3959V49.1087C52.3001 49.7234 52.7993 50.2205 53.4166 50.2205H73.4743C74.0917 50.2205 74.5908 49.7234 74.5908 49.1087V48.3959C74.5908 47.7811 74.0917 47.2841 73.4743 47.2841Z" fill="#8099F5"/>
<path d="M82.472 57.2114H53.4166C52.7993 57.2114 52.3001 57.7084 52.3001 58.3232V59.036C52.3001 59.6507 52.7993 60.1477 53.4166 60.1477H82.472C83.0894 60.1477 83.5885 59.6507 83.5885 59.036V58.3232C83.5885 57.7084 83.0894 57.2114 82.472 57.2114Z" fill="#8099F5"/>
<path d="M43.3944 88.6805C43.263 88.6805 43.1645 88.7851 43.1645 88.9159V90.3089C43.1645 90.4397 43.2696 90.5443 43.3944 90.5443C43.5191 90.5443 43.6242 90.4397 43.6242 90.3089V88.9159C43.6242 88.7851 43.5191 88.6805 43.3944 88.6805Z" fill="#8099F5"/>
<path d="M43.3944 91.8065C43.263 91.8065 43.1645 91.9111 43.1645 92.0419V93.7749C43.1645 93.8992 43.2696 94.0038 43.3944 94.0038C43.5191 94.0038 43.6242 93.8992 43.6242 93.7749V92.0419C43.6242 91.9111 43.5191 91.8065 43.3944 91.8065Z" fill="#8099F5"/>
<path d="M43.3944 95.2791C43.263 95.2791 43.1645 95.3837 43.1645 95.5145V96.9074C43.1645 97.0382 43.2696 97.1429 43.3944 97.1429C43.5191 97.1429 43.6242 97.0382 43.6242 96.9074V95.5145C43.6242 95.3837 43.5191 95.2791 43.3944 95.2791Z" fill="#8099F5"/>
<path d="M60.8184 78.5178C60.6871 78.5178 60.5886 78.6224 60.5886 78.7467V80.1396C60.5886 80.2704 60.6936 80.3751 60.8184 80.3751C60.9432 80.3751 61.0483 80.2704 61.0483 80.1396V78.7467C61.0483 78.6224 60.9432 78.5178 60.8184 78.5178Z" fill="#8099F5"/>
<path d="M60.8184 89.1317C60.6871 89.1317 60.5886 89.2364 60.5886 89.3672V92.4408C60.5886 92.5716 60.6936 92.6762 60.8184 92.6762C60.9432 92.6762 61.0483 92.5716 61.0483 92.4408V89.3672C61.0483 89.2364 60.9432 89.1317 60.8184 89.1317Z" fill="#8099F5"/>
<path d="M60.8184 82.9844C60.6871 82.9844 60.5886 83.089 60.5886 83.2198V86.2935C60.5886 86.4243 60.6936 86.5289 60.8184 86.5289C60.9432 86.5289 61.0483 86.4243 61.0483 86.2935V83.2198C61.0483 83.089 60.9432 82.9844 60.8184 82.9844Z" fill="#8099F5"/>
<path d="M60.8184 95.2791C60.6871 95.2791 60.5886 95.3837 60.5886 95.5145V96.9074C60.5886 97.0382 60.6936 97.1429 60.8184 97.1429C60.9432 97.1429 61.0483 97.0382 61.0483 96.9074V95.5145C61.0483 95.3837 60.9432 95.2791 60.8184 95.2791Z" fill="#8099F5"/>
<path d="M75.2213 78.5178C75.0899 78.5178 74.9914 78.6224 74.9914 78.7467V80.1396C74.9914 80.2704 75.0965 80.3751 75.2213 80.3751C75.3461 80.3751 75.4512 80.2704 75.4512 80.1396V78.7467C75.4512 78.6224 75.3461 78.5178 75.2213 78.5178Z" fill="#8099F5"/>
<path d="M75.2213 89.1317C75.0899 89.1317 74.9914 89.2364 74.9914 89.3672V92.4408C74.9914 92.5716 75.0965 92.6762 75.2213 92.6762C75.3461 92.6762 75.4512 92.5716 75.4512 92.4408V89.3672C75.4512 89.2364 75.3461 89.1317 75.2213 89.1317Z" fill="#8099F5"/>
<path d="M75.2213 82.9844C75.0899 82.9844 74.9914 83.089 74.9914 83.2198V86.2935C74.9914 86.4243 75.0965 86.5289 75.2213 86.5289C75.3461 86.5289 75.4512 86.4243 75.4512 86.2935V83.2198C75.4512 83.089 75.3461 82.9844 75.2213 82.9844Z" fill="#8099F5"/>
<path d="M75.2213 95.2791C75.0899 95.2791 74.9914 95.3837 74.9914 95.5145V96.9074C74.9914 97.0382 75.0965 97.1429 75.2213 97.1429C75.3461 97.1429 75.4512 97.0382 75.4512 96.9074V95.5145C75.4512 95.3837 75.3461 95.2791 75.2213 95.2791Z" fill="#8099F5"/>
<path d="M96.1328 61.8219C96.0015 61.8219 95.903 61.9265 95.903 62.0508V63.4437C95.903 63.568 96.008 63.6726 96.1328 63.6726C96.2576 63.6726 96.3627 63.568 96.3627 63.4437V62.0508C96.3627 61.9265 96.2576 61.8219 96.1328 61.8219Z" fill="#8099F5"/>
<path d="M96.1328 83.6187C96.0015 83.6187 95.903 83.7234 95.903 83.8542V86.7709C95.903 86.8951 96.008 86.9998 96.1328 86.9998C96.2576 86.9998 96.3627 86.8951 96.3627 86.7709V83.8542C96.3627 83.7234 96.2576 83.6187 96.1328 83.6187Z" fill="#8099F5"/>
<path d="M96.1328 71.9519C96.0015 71.9519 95.903 72.0565 95.903 72.1873V75.104C95.903 75.2348 96.008 75.3395 96.1328 75.3395C96.2576 75.3395 96.3627 75.2348 96.3627 75.104V72.1873C96.3627 72.0565 96.2576 71.9519 96.1328 71.9519Z" fill="#8099F5"/>
<path d="M96.1328 77.7853C96.0015 77.7853 95.903 77.89 95.903 78.0208V80.9375C95.903 81.0683 96.008 81.1729 96.1328 81.1729C96.2576 81.1729 96.3627 81.0683 96.3627 80.9375V78.0208C96.3627 77.89 96.2576 77.7853 96.1328 77.7853Z" fill="#8099F5"/>
<path d="M96.1328 66.125C96.0015 66.125 95.903 66.2297 95.903 66.3539V69.2706C95.903 69.3949 96.008 69.4995 96.1328 69.4995C96.2576 69.4995 96.3627 69.3949 96.3627 69.2706V66.3539C96.3627 66.2297 96.2576 66.125 96.1328 66.125Z" fill="#8099F5"/>
<path d="M96.1328 89.4456C96.0015 89.4456 95.903 89.5503 95.903 89.6811V92.5978C95.903 92.7286 96.008 92.8332 96.1328 92.8332C96.2576 92.8332 96.3627 92.7286 96.3627 92.5978V89.6811C96.3627 89.5503 96.2576 89.4456 96.1328 89.4456Z" fill="#8099F5"/>
<path d="M96.1328 95.2791C96.0015 95.2791 95.903 95.3837 95.903 95.5145V96.9074C95.903 97.0382 96.008 97.1429 96.1328 97.1429C96.2576 97.1429 96.3627 97.0382 96.3627 96.9074V95.5145C96.3627 95.3837 96.2576 95.2791 96.1328 95.2791Z" fill="#8099F5"/>
<path d="M127.106 46.2574C126.062 45.2045 124.367 45.2045 123.316 46.2574C122.738 46.8394 122.495 47.6177 122.555 48.3763L97.4332 54.9421C97.0851 54.2816 96.4743 53.765 95.6928 53.5819C94.2544 53.2418 92.8096 54.1377 92.4746 55.583C92.3235 56.2304 92.4286 56.8713 92.7045 57.4207L76.1933 70.9513C75.8387 70.6505 75.4052 70.4347 74.9126 70.3562C73.5269 70.1273 72.233 71.0233 71.8981 72.3639H62.8215C62.7099 71.9061 62.48 71.468 62.1254 71.1083C61.0811 70.0554 59.3866 70.0554 58.3424 71.1083C57.5937 71.8604 57.3901 72.9459 57.7119 73.8942L44.6094 82.0688C43.5651 81.0225 41.8707 81.0225 40.8264 82.0688C40.4717 82.4285 40.2419 82.8667 40.1302 83.3245H23.271C23.0149 83.3245 22.8047 83.5337 22.8047 83.7888C22.8047 84.0438 23.0149 84.2531 23.271 84.2531H40.0711C40.1302 84.8482 40.3798 85.4237 40.8264 85.8749C41.8707 86.9278 43.5651 86.9278 44.6094 85.8749C45.4303 85.0509 45.5945 83.828 45.1348 82.8274L58.1651 74.6986C58.2242 74.7705 58.2701 74.8425 58.3358 74.9144C59.3801 75.9673 61.0745 75.9673 62.1188 74.9144C62.572 74.4632 62.815 73.8877 62.8741 73.2925H71.8193C71.944 74.4697 72.8241 75.4703 74.0391 75.6665C75.4972 75.9019 76.8764 74.9079 77.1128 73.4364C77.2179 72.7955 77.0734 72.1743 76.7713 71.6576L93.243 58.1597C93.5714 58.467 93.9786 58.709 94.4449 58.8202C95.8832 59.1602 97.3281 58.2643 97.6631 56.819C97.7419 56.4855 97.7484 56.152 97.7025 55.825L122.758 49.2787C122.89 49.5665 123.06 49.8346 123.29 50.07C124.334 51.1229 126.029 51.1229 127.08 50.07C128.124 49.0172 128.124 47.3103 127.08 46.2574H127.106Z" fill="#8099F5"/>
<path d="M40.1828 45.9239C40.1171 45.9239 40.0514 45.9239 39.9792 45.9239C40.0449 45.9239 40.1105 45.9239 40.1828 45.9239Z" fill="#8099F5"/>
<path d="M45.8835 58.794C44.6882 61.0044 42.3961 62.2666 40.0317 62.2666C38.9677 62.2666 37.8972 62.0115 36.8989 61.4753C33.6807 59.7488 32.4723 55.7334 34.2062 52.529C35.3818 50.3512 37.6214 49.1022 39.9397 49.0629C39.9135 49.0629 39.8872 49.0629 39.8609 49.0629L39.8806 45.9304C38.994 45.9435 38.1074 46.0743 37.2339 46.3359C34.7316 47.0814 32.6693 48.7556 31.4346 51.0445C30.1933 53.3334 29.924 55.9689 30.6793 58.4605C31.428 60.9521 33.1094 63.0056 35.408 64.235C37.7067 65.4711 40.3535 65.7392 42.8558 64.9871C45.3581 64.2416 47.4203 62.5674 48.655 60.2785C48.655 60.2785 48.6551 60.2654 48.6616 60.2589L45.9623 58.8071L45.9754 58.7809" fill="#8099F5"/>
<path d="M120.667 99.6377C113.229 99.6377 107.073 98.0778 104.836 95.8536V102.481C104.836 105.145 112.085 107.397 120.667 107.397C129.248 107.397 136.497 105.145 136.497 102.481V95.8536C134.261 98.0778 128.104 99.6377 120.667 99.6377Z" fill="#0BAFFC"/>
<path d="M136.497 105.748C134.261 107.972 128.104 109.531 120.667 109.531C113.23 109.531 107.073 107.972 104.836 105.748V112.375C104.836 115.04 112.085 117.291 120.667 117.291C129.248 117.291 136.497 115.04 136.497 112.375V105.748Z" fill="#0BAFFC"/>
<path d="M120.667 77.7143C112.086 77.7143 104.836 79.9798 104.836 82.6612C104.836 85.3426 112.085 87.6085 120.667 87.6085C129.248 87.6085 136.497 85.3429 136.497 82.6612C136.497 79.9795 129.248 77.7143 120.667 77.7143Z" fill="#0BAFFC"/>
<path d="M120.667 89.7434C113.229 89.7434 107.073 88.1836 104.836 85.9594V92.5862C104.836 95.2512 112.085 97.5027 120.667 97.5027C129.248 97.5027 136.497 95.2512 136.497 92.5862V85.9594C134.261 88.1836 128.104 89.7434 120.667 89.7434Z" fill="#0BAFFC"/>
<path fill-rule="evenodd" clip-rule="evenodd" d="M23.5265 23.746H16.3307V16.5503C16.3307 14.9672 15.0354 13.672 13.4524 13.672C11.8693 13.672 10.5741 14.9672 10.5741 16.5503V23.746H3.37831C1.79524 23.746 0.5 25.0413 0.5 26.6243C0.5 28.2074 1.79524 29.5027 3.37831 29.5027H10.5741V36.6984C10.5741 38.2815 11.8693 39.5767 13.4524 39.5767C15.0354 39.5767 16.3307 38.2815 16.3307 36.6984V29.5027H23.5265C25.1095 29.5027 26.4048 28.2074 26.4048 26.6243C26.4048 25.0413 25.1095 23.746 23.5265 23.746Z" fill="#0BAFFC"/>
<path fill-rule="evenodd" clip-rule="evenodd" d="M39.0339 11.5532H36.4354V8.95473C36.4354 8.38307 35.9677 7.91534 35.396 7.91534C34.8243 7.91534 34.3566 8.38307 34.3566 8.95473V11.5532H31.7581C31.1865 11.5532 30.7188 12.0209 30.7188 12.5926C30.7188 13.1643 31.1865 13.632 31.7581 13.632H34.3566V16.2305C34.3566 16.8021 34.8243 17.2698 35.396 17.2698C35.9677 17.2698 36.4354 16.8021 36.4354 16.2305V13.632H39.0339C39.6055 13.632 40.0732 13.1643 40.0732 12.5926C40.0732 12.0209 39.6055 11.5532 39.0339 11.5532Z" fill="#0BAFFC"/>
<path fill-rule="evenodd" clip-rule="evenodd" d="M31.8385 3.63786H29.2401V1.03939C29.2401 0.467725 28.7723 0 28.2007 0C27.629 0 27.1613 0.467725 27.1613 1.03939V3.63786H24.5628C23.9912 3.63786 23.5234 4.10559 23.5234 4.67725C23.5234 5.24891 23.9912 5.71664 24.5628 5.71664H27.1613V8.31511C27.1613 8.88677 27.629 9.3545 28.2007 9.3545C28.7723 9.3545 29.2401 8.88677 29.2401 8.31511V5.71664H31.8385C32.4102 5.71664 32.8779 5.24891 32.8779 4.67725C32.8779 4.10559 32.4102 3.63786 31.8385 3.63786Z" fill="#0BAFFC"/>
<path fill-rule="evenodd" clip-rule="evenodd" d="M28.2448 15.1511H25.6463V12.5526C25.6463 11.9809 25.1786 11.5132 24.6069 11.5132C24.0353 11.5132 23.5675 11.9809 23.5675 12.5526V15.1511H20.9691C20.3974 15.1511 19.9297 15.6188 19.9297 16.1905C19.9297 16.7621 20.3974 17.2299 20.9691 17.2299H23.5675V19.8283C23.5675 20.4 24.0353 20.8677 24.6069 20.8677C25.1786 20.8677 25.6463 20.4 25.6463 19.8283V17.2299H28.2448C28.8165 17.2299 29.2842 16.7621 29.2842 16.1905C29.2842 15.6188 28.8165 15.1511 28.2448 15.1511Z" fill="#0BAFFC"/>
<defs>
<filter id="filter0_d_998_108743" x="21.6875" y="31.2593" width="104.109" height="80.3598" filterUnits="userSpaceOnUse" color-interpolation-filters="sRGB">
<feFlood flood-opacity="0" result="BackgroundImageFix"/>
<feColorMatrix in="SourceAlpha" type="matrix" values="0 0 0 0 0 0 0 0 0 0 0 0 0 0 0 0 0 0 127 0" result="hardAlpha"/>
<feOffset dx="2" dy="2"/>
<feGaussianBlur stdDeviation="3"/>
<feComposite in2="hardAlpha" operator="out"/>
<feColorMatrix type="matrix" values="0 0 0 0 0.878431 0 0 0 0 0.878431 0 0 0 0 0.878431 0 0 0 1 0"/>
<feBlend mode="normal" in2="BackgroundImageFix" result="effect1_dropShadow_998_108743"/>
<feBlend mode="normal" in="SourceGraphic" in2="effect1_dropShadow_998_108743" result="shape"/>
</filter>
</defs>
</svg>
