<svg width="40" height="40" viewBox="0 0 40 40" fill="none" xmlns="http://www.w3.org/2000/svg">
<circle cx="20" cy="20" r="20" fill="#DDF1FF"/>
<path d="M15.4227 22.2804L15.2986 22.2161L15.1788 22.2881C13.6107 23.2315 12.5938 24.733 12.1735 27.1421L12.1467 27.2954L12.2725 27.3871C14.7206 29.171 17.3142 30.0232 20.1011 30.0232C22.9251 30.0232 25.4502 29.2404 27.7347 27.6558L27.8597 27.5692L27.8402 27.4184C27.6461 25.9177 27.0063 23.6753 25.0725 22.3372L24.9495 22.2522L24.8164 22.3202C23.3003 23.0955 21.5797 23.4178 19.9665 23.4178C18.0223 23.4178 16.4307 22.8028 15.4227 22.2804ZM25.6604 20.3702C29.092 22.3426 29.7512 26.1624 29.87 27.8378C29.9 28.2604 29.7049 28.6647 29.3566 28.9255C26.6159 30.9772 23.5334 32.0019 20.1011 32.0019C16.6909 32.0019 13.5456 30.8877 10.6588 28.6491C10.2708 28.3482 10.0702 27.8653 10.1351 27.3812C10.5892 23.994 12.0488 21.6834 14.6069 20.3406C15.0834 20.0905 15.6878 20.1778 16.2224 20.4651C17.0423 20.9058 18.3645 21.4391 19.9665 21.4391C21.3852 21.4391 22.8358 21.1424 24.0449 20.4906C24.5923 20.1955 25.1944 20.1024 25.6604 20.3702ZM19.998 17.7147C22.1991 17.7147 23.9834 15.9304 23.9834 13.7293C23.9834 11.5283 22.1991 9.74397 19.998 9.74397C17.7969 9.74397 16.0126 11.5283 16.0126 13.7293C16.0126 15.9304 17.7969 17.7147 19.998 17.7147ZM25.9621 13.7293C25.9621 17.0232 23.2919 19.6934 19.998 19.6934C16.7041 19.6934 14.0339 17.0232 14.0339 13.7293C14.0339 10.4355 16.7041 7.76526 19.998 7.76526C23.2919 7.76526 25.9621 10.4355 25.9621 13.7293Z" fill="#0067C5" stroke="#DDF1FF" stroke-width="0.5"/>
</svg>
