<svg width="24" height="24" viewBox="0 0 24 24" fill="none" xmlns="http://www.w3.org/2000/svg">
<path d="M16.7842 7.21583C16.4793 6.91098 15.9644 6.93155 15.6341 7.26183L12 10.896L8.36587 7.26184C8.03559 6.93156 7.52068 6.91099 7.21583 7.21584C6.91098 7.52069 6.93155 8.0356 7.26183 8.36588L10.896 12L7.26183 15.6341C6.93155 15.9644 6.91098 16.4793 7.21583 16.7842C7.52068 17.089 8.03559 17.0684 8.36587 16.7382L12 13.104L15.6341 16.7382C15.9644 17.0685 16.4793 17.089 16.7842 16.7842C17.089 16.4793 17.0685 15.9644 16.7382 15.6341L13.104 12L16.7382 8.36587C17.0684 8.03559 17.089 7.52068 16.7842 7.21583Z" fill="#404040"/>
</svg>
