<svg width="24" height="24" viewBox="0 0 24 24" fill="none" xmlns="http://www.w3.org/2000/svg">
<path d="M17.4679 6.23419C15.7815 5.38022 13.9034 4.95289 11.9999 4.99995C9.65034 4.94185 7.33955 5.60658 5.37996 6.90427C3.42038 8.20196 1.90648 10.07 1.04293 12.256C0.985689 12.4132 0.985689 12.5857 1.04293 12.743C1.71332 14.4407 2.77601 15.9467 4.13514 17.1428L5.33757 16.159C4.16548 15.1699 3.23332 13.9189 2.62093 12.5C3.40726 10.6783 4.72058 9.13348 6.39197 8.06424C8.06336 6.99501 10.0164 6.45022 11.9999 6.49995C13.4361 6.46385 14.8562 6.73944 16.1651 7.30012L17.4679 6.23419Z" fill="#404040"/>
<path d="M14.412 8.73446C13.6833 8.32377 12.8492 8.1182 11.9999 8.15095C10.7973 8.10431 9.83659 8.53554 8.95088 9.35042C8.06517 10.1653 7.76498 11.2976 7.71145 12.4999C7.75469 13.0169 7.83878 13.5186 7.99249 13.9868L9.35664 12.8707C9.31027 12.5097 9.33183 12.1414 9.42212 11.7852C9.56095 11.2376 9.85626 10.7422 10.272 10.3596C10.6877 9.97697 11.2058 9.72371 11.7631 9.63071C12.2378 9.5515 12.7233 9.59148 13.1766 9.74527L14.412 8.73446Z" fill="#404040"/>
<path d="M14.1121 10.2719L15.2495 9.3413C15.253 9.34446 15.2564 9.34762 15.2598 9.35078C15.6304 9.69178 15.9382 10.0883 16.1748 10.5224L14.9751 11.5039C14.8992 11.2957 14.7994 11.0958 14.6769 10.9084C14.52 10.6684 14.3294 10.4543 14.1121 10.2719Z" fill="#404040"/>
<path d="M9.68757 13.892L8.43106 14.92C8.58761 15.1624 8.77528 15.3888 8.99993 15.5954C9.15861 15.7414 9.31923 15.8756 9.48296 15.9975L10.7243 14.9818C10.6311 14.9248 10.5408 14.8624 10.4541 14.7948C10.138 14.5485 9.87764 14.2408 9.68757 13.892Z" fill="#404040"/>
<path d="M11.8191 15.3781L10.4064 16.534C10.8913 16.7396 11.4145 16.8477 11.9994 16.8477C13.1889 16.8477 14.335 16.4007 15.2104 15.5954C16.0859 14.7901 16.6268 13.6853 16.7259 12.4999C16.7107 12.1568 16.6568 11.8194 16.567 11.4935L15.1394 12.6616C15.0668 13.4022 14.7242 14.0926 14.1738 14.5991C13.5834 15.1426 12.8018 15.4301 11.9999 15.399C11.9393 15.3939 11.879 15.3869 11.8191 15.3781Z" fill="#404040"/>
<path d="M19.2055 9.33475C20.1241 10.2341 20.8644 11.3077 21.3789 12.5C20.5926 14.3216 19.2793 15.8664 17.6079 16.9357C15.9365 18.0049 13.9835 18.5497 11.9999 18.5C10.8459 18.529 9.70221 18.3567 8.61828 17.997L7.26432 19.1048C8.75431 19.7319 10.3678 20.0404 11.9999 20C14.3495 20.0581 16.6603 19.3933 18.6199 18.0956C20.5795 16.7979 22.0934 14.9299 22.9569 12.744C23.0142 12.5863 23.0142 12.4136 22.9569 12.256C22.377 10.7879 21.5036 9.46312 20.399 8.35827L19.2055 9.33475Z" fill="#404040"/>
<path d="M18.401 6.76284L17.1487 7.78741C17.304 7.87532 17.4571 7.96756 17.608 8.06407C17.8986 8.24995 18.1783 8.45021 18.4463 8.6638L19.6538 7.67589C19.3251 7.40047 18.98 7.14274 18.6199 6.90427C18.5474 6.85626 18.4744 6.80911 18.401 6.76284Z" fill="#404040"/>
<path d="M6.26811 18.6278L7.55508 17.5748C7.15508 17.3887 6.7664 17.1754 6.39186 16.9358C6.31271 16.8852 6.23437 16.8335 6.15684 16.7808L4.93169 17.7832C5.07825 17.8906 5.2276 17.9947 5.37963 18.0954C5.66849 18.2867 5.96499 18.4643 6.26811 18.6278Z" fill="#404040"/>
<path fill-rule="evenodd" clip-rule="evenodd" d="M23.4749 3.58045C23.7372 3.90104 23.69 4.37355 23.3694 4.63585L2.53032 21.686C2.20974 21.9483 1.73722 21.901 1.47493 21.5805C1.21263 21.2599 1.25988 20.7874 1.58047 20.5251L22.4195 3.47491C22.7401 3.21262 23.2126 3.25987 23.4749 3.58045Z" fill="#404040"/>
</svg>
