<svg width="24" height="24" viewBox="0 0 24 24" fill="none" xmlns="http://www.w3.org/2000/svg">
<path d="M11.9993 8.80718C11.7324 8.80701 11.4738 8.71431 11.2676 8.54487C11.0614 8.37543 10.9204 8.13975 10.8685 7.87796C10.8166 7.61618 10.857 7.3445 10.983 7.1092C11.1089 6.87391 11.3125 6.68956 11.5592 6.58757C11.8058 6.48557 12.0801 6.47224 12.3355 6.54985C12.5908 6.62746 12.8114 6.7912 12.9595 7.01318C13.1077 7.23516 13.1743 7.50164 13.148 7.76722C13.1217 8.0328 13.0042 8.28105 12.8154 8.46968C12.7082 8.57678 12.5809 8.66171 12.4409 8.71962C12.3009 8.77753 12.1508 8.80728 11.9993 8.80718Z" fill="#404040"/>
<path d="M11.0398 16.5401V10.8143C11.0398 10.5597 11.1409 10.3155 11.3209 10.1355C11.5009 9.95551 11.7451 9.85438 11.9997 9.85438C12.2542 9.85438 12.4984 9.95551 12.6784 10.1355C12.8584 10.3155 12.9596 10.5597 12.9596 10.8143V16.5401C12.9596 16.7947 12.8584 17.0388 12.6784 17.2189C12.4984 17.3989 12.2542 17.5 11.9997 17.5C11.7451 17.5 11.5009 17.3989 11.3209 17.2189C11.1409 17.0388 11.0398 16.7947 11.0398 16.5401Z" fill="#404040"/>
<path fill-rule="evenodd" clip-rule="evenodd" d="M23 12C23 18.0751 18.0751 23 12 23C5.92487 23 1 18.0751 1 12C1 5.92487 5.92487 1 12 1C18.0751 1 23 5.92487 23 12ZM21.5 12C21.5 17.2467 17.2467 21.5 12 21.5C6.75329 21.5 2.5 17.2467 2.5 12C2.5 6.75329 6.75329 2.5 12 2.5C17.2467 2.5 21.5 6.75329 21.5 12Z" fill="#404040"/>
</svg>
