<svg width="24" height="24" viewBox="0 0 24 24" fill="none" xmlns="http://www.w3.org/2000/svg">
<path d="M13.1139 13.2356V7.50975C13.1139 7.25517 13.0127 7.01101 12.8327 6.831C12.6527 6.65098 12.4085 6.54985 12.154 6.54985C11.8994 6.54985 11.6552 6.65098 11.4752 6.831C11.2952 7.01101 11.1941 7.25517 11.1941 7.50975V13.2356C11.1941 13.4902 11.2952 13.7343 11.4752 13.9143C11.6552 14.0943 11.8994 14.1955 12.154 14.1955C12.4085 14.1955 12.6527 14.0943 12.8327 13.9143C13.0127 13.7343 13.1139 13.4902 13.1139 13.2356Z" fill="#404040"/>
<path d="M12.886 15.505C12.6798 15.3355 12.4212 15.2428 12.1543 15.2427C12.0028 15.2426 11.8528 15.2723 11.7127 15.3302C11.5727 15.3881 11.4455 15.4731 11.3383 15.5802C11.1495 15.7688 11.0319 16.0171 11.0056 16.2826C10.9793 16.5482 11.0459 16.8147 11.1941 17.0367C11.3422 17.2587 11.5628 17.4224 11.8181 17.5C12.0735 17.5776 12.3478 17.5643 12.5945 17.4623C12.8411 17.3603 13.0447 17.1759 13.1707 16.9406C13.2966 16.7054 13.3371 16.4337 13.2852 16.1719C13.2332 15.9101 13.0922 15.6744 12.886 15.505Z" fill="#404040"/>
<path fill-rule="evenodd" clip-rule="evenodd" d="M12 21.5C17.2467 21.5 21.5 17.2467 21.5 12C21.5 6.75329 17.2467 2.5 12 2.5C6.75329 2.5 2.5 6.75329 2.5 12C2.5 17.2467 6.75329 21.5 12 21.5ZM12 23C18.0751 23 23 18.0751 23 12C23 5.92487 18.0751 1 12 1C5.92487 1 1 5.92487 1 12C1 18.0751 5.92487 23 12 23Z" fill="#404040"/>
</svg>
