<svg width="24" height="24" viewBox="0 0 24 24" fill="none" xmlns="http://www.w3.org/2000/svg">
<path fill-rule="evenodd" clip-rule="evenodd" d="M15.5956 16.5403C14.1735 17.6046 12.4005 18.2361 10.4782 18.2361C5.79581 18.2361 2 14.4895 2 9.86803C2 5.24652 5.79581 1.5 10.4782 1.5C15.1606 1.5 18.9564 5.24652 18.9564 9.86803C18.9564 11.8796 18.2372 13.7254 17.0389 15.1686L21.7055 19.8168C22.0981 20.2024 22.0982 20.8268 21.7058 21.2117C21.3133 21.5966 20.677 21.596 20.2845 21.2105L15.5956 16.5403ZM17.4602 9.86803C17.4602 13.674 14.3343 16.7593 10.4782 16.7593C6.62211 16.7593 3.49615 13.674 3.49615 9.86803C3.49615 6.06208 6.62211 2.97671 10.4782 2.97671C14.3343 2.97671 17.4602 6.06208 17.4602 9.86803Z" fill="#404040"/>
</svg>
