<svg width="24" height="24" viewBox="0 0 24 24" fill="none" xmlns="http://www.w3.org/2000/svg">
<path d="M22.957 12.256C22.0934 10.0701 20.5795 8.202 18.62 6.90431C16.6604 5.60662 14.3496 4.9419 12 5C9.6504 4.9419 7.33961 5.60662 5.38003 6.90431C3.42044 8.202 1.90654 10.0701 1.04299 12.256C0.98575 12.4133 0.98575 12.5857 1.04299 12.743C1.90626 14.9292 3.42006 16.7976 5.37969 18.0955C7.33932 19.3933 9.65025 20.0582 12 20C14.3496 20.0581 16.6604 19.3934 18.62 18.0957C20.5795 16.798 22.0934 14.9299 22.957 12.744C23.0142 12.5864 23.0142 12.4136 22.957 12.256ZM12 18.5C10.0164 18.5499 8.06334 18.0051 6.39192 16.9359C4.7205 15.8666 3.40721 14.3218 2.62099 12.5C3.40732 10.6783 4.72064 9.13353 6.39203 8.06429C8.06343 6.99505 10.0165 6.45027 12 6.5C13.9835 6.45013 15.9366 6.99486 17.6081 8.06412C19.2795 9.13337 20.5928 10.6782 21.379 12.5C20.5927 14.3217 19.2793 15.8665 17.608 16.9357C15.9366 18.0049 13.9835 18.5497 12 18.5Z" fill="#404040"/>
<path d="M12 8.151C10.7974 8.10436 9.83665 8.53559 8.95094 9.35047C8.06523 10.1653 7.76504 11.2976 7.71152 12.5C7.81065 13.6854 8.12454 14.7902 8.99999 15.5955C9.87543 16.4008 10.81 16.8477 11.9995 16.8477C13.189 16.8477 14.3351 16.4008 15.2105 15.5955C16.086 14.7902 16.6269 13.6854 16.726 12.5C16.6725 11.2978 16.1454 10.1657 15.2599 9.35083C14.3744 8.53598 13.2025 8.10463 12 8.151ZM12 15.399C11.437 15.352 10.8998 15.1421 10.4541 14.7948C10.0084 14.4476 9.67352 13.9781 9.49026 13.4436C9.30701 12.9092 9.28335 12.3329 9.42218 11.7853C9.56101 11.2376 9.85632 10.7422 10.272 10.3596C10.6878 9.97702 11.2059 9.72375 11.7632 9.63076C12.3205 9.53776 12.8928 9.60906 13.4102 9.83595C13.9276 10.0628 14.3678 10.4355 14.6769 10.9084C14.986 11.3813 15.1508 11.934 15.151 12.499C15.1157 13.3007 14.7644 14.0558 14.1739 14.5992C13.5834 15.1426 12.8019 15.4302 12 15.399Z" fill="#404040"/>
</svg>
