<svg width="24" height="24" viewBox="0 0 24 24" fill="none" xmlns="http://www.w3.org/2000/svg">
<path fill-rule="evenodd" clip-rule="evenodd" d="M9.1616 13.5848C8.25695 14.129 7.66227 14.9955 7.41398 16.4185C8.87095 17.4802 10.4096 17.9847 12.0624 17.9847C13.741 17.9847 15.2389 17.5201 16.5956 16.5791C16.4802 15.6861 16.1021 14.3824 14.9847 13.6092C14.0418 14.0914 12.9759 14.29 11.9809 14.29C10.7727 14.29 9.78533 13.908 9.1616 13.5848ZM18.125 16.8028C18.0523 15.7784 17.6481 13.3968 15.502 12.1633C15.1546 11.9637 14.7298 12.044 14.3772 12.2342C13.672 12.6143 12.82 12.79 11.9809 12.79C11.0445 12.79 10.2694 12.478 9.78678 12.2187C9.43891 12.0317 9.0169 11.9591 8.66723 12.1426C7.06705 12.9826 6.16134 14.4293 5.88146 16.5171C5.83492 16.8643 5.97885 17.2094 6.25562 17.424C8.02717 18.7978 9.96276 19.4847 12.0624 19.4847C14.172 19.4847 16.0692 18.8541 17.754 17.5928C18.0032 17.4063 18.147 17.1133 18.125 16.8028Z" fill="#404040"/>
<path fill-rule="evenodd" clip-rule="evenodd" d="M12 10.5362C13.2484 10.5362 14.2605 9.52415 14.2605 8.27573C14.2605 7.02731 13.2484 6.01526 12 6.01526C10.7515 6.01526 9.7395 7.0273 9.7395 8.27573C9.7395 9.52416 10.7515 10.5362 12 10.5362ZM15.7605 8.27573C15.7605 10.3526 14.0768 12.0362 12 12.0362C9.92312 12.0362 8.2395 10.3526 8.2395 8.27573C8.2395 6.19888 9.92312 4.51526 12 4.51526C14.0768 4.51526 15.7605 6.19888 15.7605 8.27573Z" fill="#404040"/>
<path fill-rule="evenodd" clip-rule="evenodd" d="M12 22.5C17.799 22.5 22.5 17.799 22.5 12C22.5 6.20101 17.799 1.5 12 1.5C6.20101 1.5 1.5 6.20101 1.5 12C1.5 17.799 6.20101 22.5 12 22.5ZM12 24C18.6274 24 24 18.6274 24 12C24 5.37258 18.6274 0 12 0C5.37258 0 0 5.37258 0 12C0 18.6274 5.37258 24 12 24Z" fill="#404040"/>
</svg>
