<svg width="24" height="24" viewBox="0 0 24 24" fill="none" xmlns="http://www.w3.org/2000/svg">
<path fill-rule="evenodd" clip-rule="evenodd" d="M2.56766 20.582H21.8206L12.2809 3.14119L2.56766 20.582ZM22.6728 22.0884H1.70806C0.935022 22.0884 0.44507 21.2692 0.817804 20.6L11.3946 1.6084C11.7824 0.912039 12.7963 0.915832 13.1788 1.61508L23.5668 20.6066C23.9327 21.2757 23.4425 22.0884 22.6728 22.0884ZM13.2151 9.60086V14.2483C13.2151 14.4987 13.1171 14.7388 12.9427 14.9158C12.7683 15.0929 12.5317 15.1923 12.285 15.1923C12.0383 15.1923 11.8018 15.0929 11.6273 14.9158C11.4529 14.7388 11.3549 14.4987 11.3549 14.2483V9.60086C11.3549 9.3505 11.4529 9.1104 11.6273 8.93336C11.8018 8.75633 12.0383 8.65688 12.285 8.65688C12.5317 8.65688 12.7683 8.75633 12.9427 8.93336C13.1171 9.1104 13.2151 9.3505 13.2151 9.60086ZM12.2854 16.2222C12.544 16.2223 12.7945 16.3135 12.9943 16.4801C13.1941 16.6468 13.3308 16.8785 13.3811 17.136C13.4314 17.3934 13.3922 17.6606 13.2702 17.892C13.1481 18.1234 12.9508 18.3047 12.7119 18.405C12.4729 18.5053 12.2071 18.5184 11.9596 18.4421C11.7122 18.3658 11.4985 18.2047 11.3549 17.9864C11.2114 17.7681 11.1468 17.5061 11.1723 17.2449C11.1978 16.9837 11.3117 16.7396 11.4946 16.5541C11.5985 16.4487 11.7218 16.3652 11.8575 16.3083C11.9932 16.2513 12.1386 16.2221 12.2854 16.2222Z" fill="#404040"/>
</svg>
